<?xml version="1.0" standalone="no"?>
<!DOCTYPE svg PUBLIC "-//W3C//DTD SVG 20010904//EN"
 "http://www.w3.org/TR/2001/REC-SVG-20010904/DTD/svg10.dtd">
<svg version="1.0" xmlns="http://www.w3.org/2000/svg"
 width="1600.000000pt" height="1600.000000pt" viewBox="0 0 1600.000000 1600.000000"
 preserveAspectRatio="xMidYMid meet">

<g transform="translate(0.000000,1600.000000) scale(0.100000,-0.100000)"
fill="#000000" stroke="none">
<path d="M7764 15020 c-11 -11 -6 -80 6 -80 10 0 18 80 9 85 -3 2 -10 0 -15
-5z"/>
<path d="M8105 15020 c-14 -6 -2 -9 40 -8 44 0 54 2 35 8 -33 10 -51 10 -75 0z"/>
<path d="M7818 15013 c12 -2 30 -2 40 0 9 3 -1 5 -23 4 -22 0 -30 -2 -17 -4z"/>
<path d="M7973 15013 c9 -2 23 -2 30 0 6 3 -1 5 -18 5 -16 0 -22 -2 -12 -5z"/>
<path d="M8290 15000 c0 -5 5 -10 11 -10 5 0 7 5 4 10 -3 6 -8 10 -11 10 -2 0
-4 -4 -4 -10z"/>
<path d="M7080 14980 c0 -5 7 -10 15 -10 8 0 15 5 15 10 0 6 -7 10 -15 10 -8
0 -15 -4 -15 -10z"/>
<path d="M8345 14980 c3 -5 10 -10 16 -10 5 0 9 5 9 10 0 6 -7 10 -16 10 -8 0
-12 -4 -9 -10z"/>
<path d="M6913 14963 c9 -2 23 -2 30 0 6 3 -1 5 -18 5 -16 0 -22 -2 -12 -5z"/>
<path d="M8450 14930 c0 -5 5 -10 11 -10 5 0 7 5 4 10 -3 6 -8 10 -11 10 -2 0
-4 -4 -4 -10z"/>
<path d="M7122 14835 c0 -16 2 -22 5 -12 2 9 2 23 0 30 -3 6 -5 -1 -5 -18z"/>
<path d="M6360 14840 c0 -5 7 -7 15 -4 8 4 15 8 15 10 0 2 -7 4 -15 4 -8 0
-15 -4 -15 -10z"/>
<path d="M6445 14840 c3 -5 10 -10 16 -10 5 0 9 5 9 10 0 6 -7 10 -16 10 -8 0
-12 -4 -9 -10z"/>
<path d="M6892 14810 c0 -14 2 -19 5 -12 2 6 2 18 0 25 -3 6 -5 1 -5 -13z"/>
<path d="M8070 14811 l-35 -7 40 -5 c50 -5 77 -1 70 12 -7 10 -22 10 -75 0z"/>
<path d="M8586 14797 c3 -10 9 -15 12 -12 3 3 0 11 -7 18 -10 9 -11 8 -5 -6z"/>
<path d="M6170 14789 c0 -5 5 -7 10 -4 6 3 10 8 10 11 0 2 -4 4 -10 4 -5 0
-10 -5 -10 -11z"/>
<path d="M6545 14790 c3 -5 8 -10 11 -10 2 0 4 5 4 10 0 6 -5 10 -11 10 -5 0
-7 -4 -4 -10z"/>
<path d="M8620 14730 c0 -5 5 -10 11 -10 5 0 7 5 4 10 -3 6 -8 10 -11 10 -2 0
-4 -4 -4 -10z"/>
<path d="M5895 14720 c-3 -5 -1 -10 4 -10 6 0 11 5 11 10 0 6 -2 10 -4 10 -3
0 -8 -4 -11 -10z"/>
<path d="M5826 14713 c-11 -11 -6 -23 8 -23 8 0 17 4 20 9 7 10 -19 23 -28 14z"/>
<path d="M7980 14655 c-6 -70 -5 -83 5 -73 3 3 5 37 3 74 l-3 69 -5 -70z"/>
<path d="M6912 14680 c0 -14 2 -19 5 -12 2 6 2 18 0 25 -3 6 -5 1 -5 -13z"/>
<path d="M7130 14683 c0 -10 5 -25 10 -33 7 -11 10 -7 10 18 0 17 -4 32 -10
32 -5 0 -10 -8 -10 -17z"/>
<path d="M5820 14651 c0 -6 5 -13 10 -16 6 -3 10 1 10 9 0 9 -4 16 -10 16 -5
0 -10 -4 -10 -9z"/>
<path d="M7757 14653 c-11 -19 -18 -113 -9 -129 7 -12 11 4 15 57 5 73 4 88
-6 72z"/>
<path d="M8661 14634 c0 -11 3 -14 6 -6 3 7 2 16 -1 19 -3 4 -6 -2 -5 -13z"/>
<path d="M6276 14621 c-9 -13 15 -19 54 -13 33 5 34 6 10 13 -36 10 -58 10
-64 0z"/>
<path d="M10445 14600 c-4 -6 3 -10 14 -10 25 0 27 6 6 13 -8 4 -17 2 -20 -3z"/>
<path d="M5841 14584 c0 -11 3 -14 6 -6 3 7 2 16 -1 19 -3 4 -6 -2 -5 -13z"/>
<path d="M6130 14579 c0 -5 5 -7 10 -4 6 3 10 8 10 11 0 2 -4 4 -10 4 -5 0
-10 -5 -10 -11z"/>
<path d="M6700 14560 c0 -19 3 -21 12 -12 9 9 9 15 0 24 -9 9 -12 7 -12 -12z"/>
<path d="M8431 14564 c0 -11 3 -14 6 -6 3 7 2 16 -1 19 -3 4 -6 -2 -5 -13z"/>
<path d="M6932 14545 c0 -16 2 -22 5 -12 2 9 2 23 0 30 -3 6 -5 -1 -5 -18z"/>
<path d="M7972 14530 c0 -14 2 -19 5 -12 2 6 2 18 0 25 -3 6 -5 1 -5 -13z"/>
<path d="M8671 14508 c0 -24 4 -63 8 -88 l7 -45 6 59 c7 63 1 116 -13 116 -5
0 -9 -19 -8 -42z"/>
<path d="M5854 14529 c-3 -6 -1 -16 5 -22 8 -8 11 -5 11 11 0 24 -5 28 -16 11z"/>
<path d="M7150 14506 c0 -14 5 -26 10 -26 6 0 10 9 10 19 0 11 -4 23 -10 26
-6 4 -10 -5 -10 -19z"/>
<path d="M6091 14504 c0 -11 3 -14 6 -6 3 7 2 16 -1 19 -3 4 -6 -2 -5 -13z"/>
<path d="M10650 14500 c0 -11 7 -20 15 -20 8 0 15 6 15 14 0 8 -7 16 -15 20
-10 4 -15 -1 -15 -14z"/>
<path d="M5233 14453 c15 -2 37 -2 50 0 12 2 0 4 -28 4 -27 0 -38 -2 -22 -4z"/>
<path d="M5881 14444 c0 -11 3 -14 6 -6 3 7 2 16 -1 19 -3 4 -6 -2 -5 -13z"/>
<path d="M6492 14440 c0 -14 2 -19 5 -12 2 6 2 18 0 25 -3 6 -5 1 -5 -13z"/>
<path d="M10202 14400 c0 -14 2 -19 5 -12 2 6 2 18 0 25 -3 6 -5 1 -5 -13z"/>
<path d="M7171 14364 c0 -11 3 -14 6 -6 3 7 2 16 -1 19 -3 4 -6 -2 -5 -13z"/>
<path d="M8430 14355 c0 -8 2 -15 4 -15 2 0 6 7 10 15 3 8 1 15 -4 15 -6 0
-10 -7 -10 -15z"/>
<path d="M9998 14353 c7 -3 16 -2 19 1 4 3 -2 6 -13 5 -11 0 -14 -3 -6 -6z"/>
<path d="M10345 14349 c-4 -6 -5 -12 -2 -15 2 -3 7 2 10 11 7 17 1 20 -8 4z"/>
<path d="M10587 14353 c-4 -3 -7 -11 -7 -17 0 -6 5 -5 12 2 6 6 9 14 7 17 -3
3 -9 2 -12 -2z"/>
<path d="M8656 14305 c-3 -8 -1 -15 4 -15 6 0 10 7 10 15 0 8 -2 15 -4 15 -2
0 -6 -7 -10 -15z"/>
<path d="M4849 14273 l-34 -38 38 34 c20 19 37 36 37 38 0 8 -8 0 -41 -34z"/>
<path d="M8410 14299 c0 -5 5 -7 10 -4 6 3 10 8 10 11 0 2 -4 4 -10 4 -5 0
-10 -5 -10 -11z"/>
<path d="M6141 14284 c0 -11 3 -14 6 -6 3 7 2 16 -1 19 -3 4 -6 -2 -5 -13z"/>
<path d="M9152 14280 c0 -14 2 -19 5 -12 2 6 2 18 0 25 -3 6 -5 1 -5 -13z"/>
<path d="M11101 14274 c-14 -32 -7 -44 9 -15 6 12 18 21 26 21 8 0 12 5 9 10
-11 18 -32 10 -44 -16z"/>
<path d="M8395 14270 c-3 -5 -1 -10 4 -10 6 0 11 5 11 10 0 6 -2 10 -4 10 -3
0 -8 -4 -11 -10z"/>
<path d="M6218 14263 c6 -2 18 -2 25 0 6 3 1 5 -13 5 -14 0 -19 -2 -12 -5z"/>
<path d="M6641 14224 c-19 -19 -30 -34 -24 -34 12 0 68 58 62 64 -2 3 -20 -11
-38 -30z"/>
<path d="M5930 14236 c0 -8 4 -17 9 -20 5 -4 7 3 4 14 -6 23 -13 26 -13 6z"/>
<path d="M6962 14220 c0 -19 2 -27 5 -17 2 9 2 25 0 35 -3 9 -5 1 -5 -18z"/>
<path d="M7187 14238 c-3 -8 -2 -21 3 -27 11 -19 23 5 12 25 -8 14 -10 14 -15
2z"/>
<path d="M11208 14243 c7 -3 16 -2 19 1 4 3 -2 6 -13 5 -11 0 -14 -3 -6 -6z"/>
<path d="M11292 14195 c13 -28 23 -32 31 -11 6 15 -11 36 -30 36 -10 0 -10 -5
-1 -25z"/>
<path d="M7730 14180 c0 -5 5 -10 10 -10 6 0 10 5 10 10 0 6 -4 10 -10 10 -5
0 -10 -4 -10 -10z"/>
<path d="M11055 14180 c-3 -5 -1 -10 4 -10 6 0 11 5 11 10 0 6 -2 10 -4 10 -3
0 -8 -4 -11 -10z"/>
<path d="M5951 14164 c0 -11 3 -14 6 -6 3 7 2 16 -1 19 -3 4 -6 -2 -5 -13z"/>
<path d="M7510 14130 c-20 -13 -10 -19 22 -13 15 3 25 9 22 14 -7 12 -25 11
-44 -1z"/>
<path d="M7730 14043 c0 -54 -3 -109 -7 -122 -5 -19 -2 -22 13 -19 15 3 18 10
15 38 -3 19 -5 72 -5 118 0 45 -4 82 -8 82 -5 0 -8 -44 -8 -97z"/>
<path d="M8035 14130 c-36 -9 -25 -11 55 -11 81 0 88 1 65 11 -24 10 -79 10
-120 0z"/>
<path d="M7590 14119 c0 -5 5 -7 10 -4 6 3 10 8 10 11 0 2 -4 4 -10 4 -5 0
-10 -5 -10 -11z"/>
<path d="M8545 14100 c-16 -16 -26 -32 -24 -35 3 -3 18 9 34 25 16 16 26 32
24 35 -3 3 -18 -9 -34 -25z"/>
<path d="M4437 14106 c-4 -10 -1 -13 9 -9 7 3 14 9 14 14 0 14 -17 10 -23 -5z"/>
<path d="M9151 14104 c0 -11 3 -14 6 -6 3 7 2 16 -1 19 -3 4 -6 -2 -5 -13z"/>
<path d="M7333 14103 c9 -2 25 -2 35 0 9 3 1 5 -18 5 -19 0 -27 -2 -17 -5z"/>
<path d="M6982 14065 c0 -16 2 -22 5 -12 2 9 2 23 0 30 -3 6 -5 -1 -5 -18z"/>
<path d="M7612 14040 c0 -14 2 -19 5 -12 2 6 2 18 0 25 -3 6 -5 1 -5 -13z"/>
<path d="M11230 14049 c0 -5 5 -7 10 -4 6 3 10 8 10 11 0 2 -4 4 -10 4 -5 0
-10 -5 -10 -11z"/>
<path d="M6390 14034 c0 -5 20 -30 45 -54 25 -24 45 -40 45 -35 -1 14 -90 102
-90 89z"/>
<path d="M8449 13999 c-23 -19 -23 -20 -2 -10 12 6 25 16 28 21 10 16 -1 12
-26 -11z"/>
<path d="M9875 14009 c-10 -15 3 -25 16 -12 7 7 7 13 1 17 -6 3 -14 1 -17 -5z"/>
<path d="M10425 14000 c-3 -5 -1 -10 4 -10 6 0 11 5 11 10 0 6 -2 10 -4 10 -3
0 -8 -4 -11 -10z"/>
<path d="M4250 13974 c0 -8 5 -12 10 -9 6 3 10 10 10 16 0 5 -4 9 -10 9 -5 0
-10 -7 -10 -16z"/>
<path d="M6220 13971 c0 -5 5 -13 10 -16 6 -3 10 -2 10 4 0 5 -4 13 -10 16 -5
3 -10 2 -10 -4z"/>
<path d="M11740 13970 c0 -5 5 -10 11 -10 5 0 7 5 4 10 -3 6 -8 10 -11 10 -2
0 -4 -4 -4 -10z"/>
<path d="M5995 13949 c-4 -6 0 -18 9 -27 15 -15 16 -15 16 5 0 25 -15 38 -25
22z"/>
<path d="M6786 13938 c26 -30 35 -40 64 -63 14 -11 3 4 -25 33 -49 52 -75 72
-39 30z"/>
<path d="M8360 13949 c0 -5 5 -7 10 -4 6 3 10 8 10 11 0 2 -4 4 -10 4 -5 0
-10 -5 -10 -11z"/>
<path d="M10407 13953 c-4 -3 -7 -11 -7 -17 0 -6 5 -5 12 2 6 6 9 14 7 17 -3
3 -9 2 -12 -2z"/>
<path d="M5581 13934 c0 -11 3 -14 6 -6 3 7 2 16 -1 19 -3 4 -6 -2 -5 -13z"/>
<path d="M8318 13933 c7 -3 16 -2 19 1 4 3 -2 6 -13 5 -11 0 -14 -3 -6 -6z"/>
<path d="M10165 13927 c-4 -10 -5 -21 -1 -24 10 -10 18 4 13 24 -4 17 -4 17
-12 0z"/>
<path d="M6240 13906 c0 -9 5 -16 10 -16 6 0 10 4 10 9 0 6 -4 13 -10 16 -5 3
-10 -1 -10 -9z"/>
<path d="M8223 13913 c9 -2 23 -2 30 0 6 3 -1 5 -18 5 -16 0 -22 -2 -12 -5z"/>
<path d="M7000 13880 c0 -11 4 -20 9 -20 5 0 7 9 4 20 -3 11 -7 20 -9 20 -2 0
-4 -9 -4 -20z"/>
<path d="M7493 13893 c9 -2 25 -2 35 0 9 3 1 5 -18 5 -19 0 -27 -2 -17 -5z"/>
<path d="M10391 13884 c0 -11 3 -14 6 -6 3 7 2 16 -1 19 -3 4 -6 -2 -5 -13z"/>
<path d="M10046 13863 c-6 -14 -5 -15 5 -6 7 7 10 15 7 18 -3 3 -9 -2 -12 -12z"/>
<path d="M7093 13863 c9 -2 25 -2 35 0 9 3 1 5 -18 5 -19 0 -27 -2 -17 -5z"/>
<path d="M6873 13823 c9 -9 19 -14 23 -11 10 10 -6 28 -24 28 -15 0 -15 -1 1
-17z"/>
<path d="M10152 13820 c0 -14 2 -19 5 -12 2 6 2 18 0 25 -3 6 -5 1 -5 -13z"/>
<path d="M11970 13832 c0 -4 18 -26 40 -47 22 -21 40 -35 40 -31 0 5 -18 26
-40 47 -22 22 -40 35 -40 31z"/>
<path d="M5820 13820 c0 -5 5 -10 11 -10 5 0 7 5 4 10 -3 6 -8 10 -11 10 -2 0
-4 -4 -4 -10z"/>
<path d="M6580 13828 c0 -10 49 -62 54 -57 3 3 -8 18 -24 34 -17 16 -30 26
-30 23z"/>
<path d="M10370 13819 c0 -5 5 -7 10 -4 6 3 10 8 10 11 0 2 -4 4 -10 4 -5 0
-10 -5 -10 -11z"/>
<path d="M6820 13810 c0 -5 5 -10 10 -10 6 0 10 5 10 10 0 6 -4 10 -10 10 -5
0 -10 -4 -10 -10z"/>
<path d="M6035 13780 c3 -5 8 -10 11 -10 2 0 4 5 4 10 0 6 -5 10 -11 10 -5 0
-7 -4 -4 -10z"/>
<path d="M11677 13779 c7 -7 15 -10 18 -7 3 3 -2 9 -12 12 -14 6 -15 5 -6 -5z"/>
<path d="M3913 13748 c-6 -7 -13 -20 -18 -28 -6 -12 -5 -13 6 -2 22 21 43 14
84 -28 21 -22 41 -37 44 -35 5 6 -89 105 -100 105 -4 0 -11 -6 -16 -12z"/>
<path d="M11747 13729 c7 -7 15 -10 18 -7 3 3 -2 9 -12 12 -14 6 -15 5 -6 -5z"/>
<path d="M6296 13705 c-3 -10 -3 -22 3 -28 12 -12 20 4 11 27 -6 19 -7 19 -14
1z"/>
<path d="M4350 13700 c0 -5 5 -10 10 -10 6 0 10 5 10 10 0 6 -4 10 -10 10 -5
0 -10 -4 -10 -10z"/>
<path d="M10790 13669 c0 -5 5 -7 10 -4 6 3 10 8 10 11 0 2 -4 4 -10 4 -5 0
-10 -5 -10 -11z"/>
<path d="M11035 13670 c-3 -5 -1 -10 4 -10 6 0 11 5 11 10 0 6 -2 10 -4 10 -3
0 -8 -4 -11 -10z"/>
<path d="M11280 13670 c0 -5 5 -10 10 -10 6 0 10 5 10 10 0 6 -4 10 -10 10 -5
0 -10 -4 -10 -10z"/>
<path d="M10151 13654 c0 -11 3 -14 6 -6 3 7 2 16 -1 19 -3 4 -6 -2 -5 -13z"/>
<path d="M4370 13650 c0 -5 5 -10 11 -10 5 0 7 5 4 10 -3 6 -8 10 -11 10 -2 0
-4 -4 -4 -10z"/>
<path d="M6070 13646 c0 -12 9 -16 33 -15 21 1 25 3 12 6 -11 3 -26 10 -32 15
-10 8 -13 6 -13 -6z"/>
<path d="M6178 13653 c7 -3 16 -2 19 1 4 3 -2 6 -13 5 -11 0 -14 -3 -6 -6z"/>
<path d="M10750 13615 c-7 -9 -11 -18 -8 -20 3 -3 11 1 18 10 7 9 11 18 8 20
-3 3 -11 -1 -18 -10z"/>
<path d="M4616 13597 c3 -10 9 -15 12 -12 3 3 0 11 -7 18 -10 9 -11 8 -5 -6z"/>
<path d="M11495 13600 c-3 -5 -1 -10 4 -10 6 0 11 5 11 10 0 6 -2 10 -4 10 -3
0 -8 -4 -11 -10z"/>
<path d="M12113 13545 c0 -22 2 -30 4 -17 2 12 2 30 0 40 -3 9 -5 -1 -4 -23z"/>
<path d="M4165 13530 c21 -24 26 -25 19 -6 -3 8 -13 17 -22 21 -13 5 -13 2 3
-15z"/>
<path d="M10558 13543 c7 -3 16 -2 19 1 4 3 -2 6 -13 5 -11 0 -14 -3 -6 -6z"/>
<path d="M10638 13543 c7 -3 16 -2 19 1 4 3 -2 6 -13 5 -11 0 -14 -3 -6 -6z"/>
<path d="M11205 13539 c-4 -6 -5 -12 -2 -15 2 -3 7 2 10 11 7 17 1 20 -8 4z"/>
<path d="M10946 13504 c-5 -14 -4 -15 9 -4 17 14 19 20 6 20 -5 0 -12 -7 -15
-16z"/>
<path d="M11181 13494 c0 -11 3 -14 6 -6 3 7 2 16 -1 19 -3 4 -6 -2 -5 -13z"/>
<path d="M10220 13493 c0 -5 9 -18 20 -28 11 -10 20 -16 20 -13 0 3 -9 15 -20
28 -11 13 -20 19 -20 13z"/>
<path d="M11836 13474 c-5 -14 -4 -15 9 -4 17 14 19 20 6 20 -5 0 -12 -7 -15
-16z"/>
<path d="M4250 13466 c0 -2 8 -10 18 -17 15 -13 16 -12 3 4 -13 16 -21 21 -21
13z"/>
<path d="M4671 13434 c0 -11 3 -14 6 -6 3 7 2 16 -1 19 -3 4 -6 -2 -5 -13z"/>
<path d="M11595 13430 c18 -20 35 -26 35 -12 0 4 -12 12 -26 19 -26 12 -26 12
-9 -7z"/>
<path d="M10293 13413 c9 -9 20 -13 24 -9 4 4 1 11 -7 16 -25 16 -35 11 -17
-7z"/>
<path d="M10870 13419 c0 -5 5 -7 10 -4 6 3 10 8 10 11 0 2 -4 4 -10 4 -5 0
-10 -5 -10 -11z"/>
<path d="M11125 13410 c-3 -5 -1 -10 4 -10 6 0 11 5 11 10 0 6 -2 10 -4 10 -3
0 -8 -4 -11 -10z"/>
<path d="M3401 13392 c-9 -17 -7 -18 15 -14 14 2 23 9 21 15 -6 19 -25 19 -36
-1z"/>
<path d="M4691 13384 c0 -11 3 -14 6 -6 3 7 2 16 -1 19 -3 4 -6 -2 -5 -13z"/>
<path d="M10820 13380 c-8 -5 -12 -12 -9 -15 4 -3 12 1 19 10 14 17 11 19 -10
5z"/>
<path d="M3450 13377 c0 -6 33 -40 70 -72 21 -17 15 -8 -15 23 -47 49 -55 57
-55 49z"/>
<path d="M10365 13370 c4 -6 11 -8 16 -5 14 9 11 15 -7 15 -8 0 -12 -5 -9 -10z"/>
<path d="M10410 13360 c0 -6 7 -10 15 -10 8 0 15 2 15 4 0 2 -7 6 -15 10 -8 3
-15 1 -15 -4z"/>
<path d="M3359 13343 c-13 -16 -12 -17 4 -4 9 7 17 15 17 17 0 8 -8 3 -21 -13z"/>
<path d="M10465 13340 c3 -5 11 -10 16 -10 6 0 7 5 4 10 -3 6 -11 10 -16 10
-6 0 -7 -4 -4 -10z"/>
<path d="M4430 13321 c0 -10 19 -25 25 -20 1 2 -3 10 -11 17 -8 7 -14 8 -14 3z"/>
<path d="M11070 13319 c0 -5 5 -7 10 -4 6 3 10 8 10 11 0 2 -4 4 -10 4 -5 0
-10 -5 -10 -11z"/>
<path d="M11420 13321 c0 -5 7 -12 16 -15 14 -5 15 -4 4 9 -14 17 -20 19 -20
6z"/>
<path d="M11987 13286 c-21 -21 -36 -40 -34 -42 2 -2 21 14 42 36 21 22 37 41
34 42 -2 2 -21 -14 -42 -36z"/>
<path d="M5267 13278 c15 -7 33 -7 60 0 38 10 37 10 -22 10 -49 1 -56 -1 -38
-10z"/>
<path d="M3253 13260 c-27 -21 -29 -30 -8 -30 8 0 15 6 15 14 0 8 6 16 13 19
6 2 10 7 7 10 -3 3 -15 -3 -27 -13z"/>
<path d="M7800 13253 c-149 -6 -495 -34 -584 -48 -138 -21 -327 -55 -366 -65
-19 -5 -84 -21 -145 -36 -175 -41 -545 -153 -640 -193 -11 -5 -63 -26 -115
-47 -102 -42 -374 -177 -554 -276 -406 -223 -710 -433 -981 -677 -185 -167
-494 -486 -581 -602 -10 -14 -68 -90 -128 -170 -130 -172 -274 -389 -357 -536
-57 -103 -208 -405 -262 -524 -108 -239 -215 -552 -286 -839 -102 -413 -133
-624 -153 -1054 -12 -266 -2 -618 23 -831 21 -175 79 -581 89 -620 5 -22 19
-78 30 -125 19 -81 94 -322 120 -385 7 -16 16 -39 20 -50 25 -66 67 -169 92
-223 15 -34 28 -66 28 -70 0 -11 249 -503 293 -580 21 -35 37 -66 37 -69 0
-17 264 -397 345 -498 289 -358 490 -569 730 -769 94 -78 182 -150 196 -161
214 -164 383 -281 500 -348 24 -13 76 -42 114 -64 204 -116 373 -201 550 -278
17 -7 52 -22 78 -34 190 -85 609 -225 792 -265 17 -4 46 -11 65 -15 211 -51
364 -76 635 -106 347 -37 661 -44 966 -20 271 22 386 37 694 92 167 29 555
130 630 163 11 5 49 18 85 30 36 12 81 29 100 37 19 8 44 19 55 23 64 25 118
48 183 77 41 18 76 33 79 33 13 0 367 185 512 267 147 83 550 350 657 435 643
510 1135 1120 1488 1843 32 66 73 149 91 185 104 208 224 549 275 785 138 644
179 1095 149 1650 -16 302 -65 604 -159 975 -46 184 -110 393 -124 407 -3 4
-6 13 -6 22 0 20 -80 223 -148 376 -39 86 -187 382 -218 435 -28 48 -166 280
-198 333 -87 144 -335 471 -471 622 -250 278 -473 489 -706 669 -179 138 -176
136 -185 136 -4 0 -17 8 -28 19 -21 18 -291 191 -300 191 -2 0 -40 21 -83 46
-43 26 -94 56 -113 67 -43 25 -408 207 -414 207 -3 0 -33 13 -68 29 -105 49
-286 117 -373 141 -16 4 -77 22 -135 39 -58 17 -121 35 -140 40 -19 5 -60 17
-90 25 -30 9 -86 23 -125 32 -38 8 -86 19 -105 24 -19 4 -62 13 -95 19 -33 7
-80 16 -105 21 -123 27 -482 64 -775 80 -163 9 -220 10 -385 3z m343 -1388
c32 -7 63 -18 70 -22 7 -5 30 -15 52 -21 44 -13 83 -45 133 -113 18 -24 48
-65 68 -90 27 -37 36 -60 43 -115 5 -38 20 -94 33 -124 57 -129 57 -136 10
-215 -60 -98 -104 -194 -117 -250 -22 -92 -32 -116 -68 -154 -30 -31 -31 -34
-13 -45 36 -21 146 -135 146 -151 0 -32 73 -176 88 -173 8 2 24 27 36 56 11
29 36 68 55 87 32 33 33 38 28 86 -6 48 -5 52 33 93 22 24 40 51 40 60 0 26
28 19 44 -11 7 -16 17 -46 20 -68 9 -51 14 -59 51 -76 44 -21 75 -73 75 -129
0 -25 7 -55 15 -66 23 -31 18 -61 -12 -76 -24 -11 -28 -20 -31 -63 -3 -49 14
-161 28 -180 4 -5 13 -35 20 -65 7 -30 14 -60 16 -67 6 -22 55 -47 71 -37 9 5
35 55 60 109 83 187 96 200 73 71 -32 -177 -82 -319 -150 -424 -43 -67 -56
-78 -73 -64 -40 32 -167 19 -260 -28 -48 -24 -51 -28 -54 -65 -2 -38 28 -180
41 -193 4 -3 39 11 78 32 115 61 251 211 324 356 21 41 46 86 55 100 9 14 27
66 38 115 12 50 26 106 31 126 6 20 10 63 10 95 0 33 7 81 15 108 8 27 15 69
15 93 0 80 47 40 74 -62 19 -77 22 -83 35 -105 24 -39 39 -88 34 -112 -3 -19
-1 -28 7 -28 8 0 10 -8 6 -22 -4 -13 -11 -68 -16 -123 -6 -55 -20 -150 -32
-211 -21 -104 -23 -110 -44 -106 -20 3 -24 -1 -29 -34 -3 -22 -11 -61 -17 -87
-5 -26 -7 -68 -3 -92 6 -41 4 -47 -22 -70 -33 -29 -43 -31 -43 -9 0 9 -6 14
-12 11 -9 -3 -12 -25 -10 -74 4 -78 -5 -93 -44 -73 -19 11 -27 10 -48 -4 -32
-20 -80 -21 -96 -1 -16 20 -36 19 -44 -1 -9 -24 9 -41 50 -47 19 -3 51 -20 71
-38 32 -27 42 -31 78 -26 l43 4 -6 -41 c-2 -22 -13 -72 -22 -110 -12 -49 -15
-79 -9 -100 17 -58 11 -85 -25 -119 -19 -18 -39 -49 -45 -71 -12 -44 -46 -86
-72 -86 -9 0 -27 11 -40 25 -14 14 -35 25 -51 25 -32 0 -71 45 -163 188 -54
84 -75 103 -75 67 0 -8 18 -49 41 -93 27 -52 43 -100 50 -147 6 -39 18 -112
26 -163 13 -75 14 -102 5 -143 -14 -60 -15 -109 -3 -109 5 0 11 9 14 20 6 23
49 45 72 36 32 -12 62 -134 36 -150 -4 -3 -11 -49 -15 -103 -10 -141 -28 -219
-49 -215 -9 1 -25 3 -34 5 -23 3 -30 -39 -10 -61 28 -33 37 -83 27 -147 -5
-33 -10 -95 -10 -139 0 -74 -6 -113 -32 -195 -9 -28 -7 -38 11 -62 23 -31 28
-78 9 -97 -14 -14 -32 -364 -24 -465 9 -100 0 -112 -136 -180 -130 -64 -198
-110 -198 -132 0 -9 11 -28 25 -43 46 -49 115 -218 115 -281 0 -39 60 -151 81
-151 9 0 29 -14 44 -31 32 -39 28 -72 -21 -140 -35 -48 -117 -109 -147 -109
-9 0 -19 -4 -22 -10 -3 -5 -14 -10 -24 -10 -10 0 -24 -6 -30 -14 -6 -8 -24
-17 -39 -20 -81 -19 -186 -36 -257 -41 -149 -11 -145 -9 -145 -61 0 -31 -6
-51 -20 -66 -17 -19 -19 -32 -15 -126 3 -70 9 -109 17 -114 50 -31 444 16 622
74 71 23 91 27 98 16 5 -7 22 -39 40 -70 17 -32 35 -58 40 -58 5 0 22 7 38 15
28 14 29 14 44 -17 9 -17 16 -37 16 -45 0 -7 4 -21 9 -31 19 -39 39 -89 45
-117 6 -28 2 -32 -51 -67 -32 -20 -71 -42 -88 -49 -79 -32 -92 -37 -120 -46
-77 -26 -104 -33 -260 -63 -87 -18 -203 -30 -410 -45 -110 -7 -201 -14 -202
-14 -1 -1 3 -16 8 -33 10 -38 4 -64 -16 -72 -12 -4 -14 -19 -9 -76 6 -61 5
-70 -9 -65 -8 4 -17 3 -20 -2 -8 -12 15 -107 27 -115 20 -14 466 -8 591 8 191
24 283 43 406 85 125 42 170 63 265 125 88 58 114 88 114 131 l1 28 15 -28
c20 -38 13 -64 -36 -125 -90 -114 -288 -217 -506 -262 -352 -74 -963 -62
-1362 26 -270 60 -443 144 -526 256 -23 32 -27 45 -22 73 9 44 23 45 41 2 7
-18 33 -48 56 -67 111 -90 153 -113 269 -153 151 -51 220 -59 206 -22 -9 25
10 17 24 -10 7 -14 17 -25 22 -25 11 0 11 2 -12 55 -35 82 -21 110 21 41 10
-17 19 -24 19 -15 0 8 -4 19 -10 25 -5 5 -13 32 -16 59 l-7 50 23 -20 23 -20
-7 25 c-4 14 -10 40 -13 59 -6 32 -5 33 16 22 24 -13 25 -9 9 36 -15 40 -5 52
22 28 17 -15 20 -16 20 -3 0 22 -17 32 -90 52 -167 46 -320 113 -320 140 0 7
9 31 20 54 11 22 20 45 20 50 0 15 40 101 49 106 4 3 31 -4 60 -14 96 -37 98
-35 136 92 21 73 33 83 81 68 21 -7 58 -10 84 -7 30 4 52 1 60 -6 10 -10 11
-6 6 18 -24 112 -15 138 24 68 12 -21 19 -31 17 -22 -30 100 -38 140 -35 160
3 23 4 22 27 -14 13 -21 25 -36 27 -35 2 2 -6 32 -16 67 -25 80 -25 84 5 78
16 -3 24 0 22 7 -2 6 -12 12 -23 14 -10 2 -41 10 -69 18 -27 8 -68 19 -90 25
-22 7 -54 18 -72 25 -17 8 -34 14 -37 14 -22 0 -130 60 -179 100 -13 11 25
104 60 144 47 56 73 115 84 191 5 36 16 79 24 95 20 38 19 42 -10 130 -47 145
-83 236 -117 295 -73 129 -86 172 -98 310 -11 124 -20 169 -53 260 -12 32 -16
143 -22 560 -6 464 -9 529 -26 605 -30 131 -71 277 -96 345 -10 27 -14 70 -12
140 1 55 -1 101 -4 103 -23 8 -27 -6 -27 -107 0 -112 19 -212 69 -360 12 -35
20 -68 18 -75 -3 -6 -8 -2 -12 9 -4 11 -32 72 -63 135 -59 124 -75 165 -98
250 -25 90 -33 119 -60 240 -40 178 -42 188 -64 310 -12 63 -29 149 -40 190
-10 41 -33 129 -50 195 -16 66 -50 197 -75 290 -25 94 -50 190 -56 215 -11 48
-5 155 11 193 5 12 19 54 31 94 19 65 24 74 57 90 37 18 37 18 44 98 10 112
19 152 73 300 26 72 57 167 70 213 34 118 66 180 132 254 32 35 85 95 118 132
105 119 210 188 449 296 70 32 220 72 331 88 95 14 283 13 348 -3z m1241
-1211 c9 -9 16 -32 16 -54 0 -51 15 -83 49 -103 44 -26 63 -53 58 -84 l-4 -28
-8 33 c-7 30 -15 36 -42 33 -6 -1 -14 3 -18 9 -11 18 -32 11 -44 -16 -11 -25
-13 -26 -30 -10 -10 9 -21 36 -25 59 -12 84 -21 120 -32 124 -15 5 -24 -31
-17 -73 3 -19 3 -34 0 -34 -6 0 -41 110 -36 113 89 51 109 56 133 31z m196
-305 c0 -18 -32 -59 -46 -59 -13 0 -34 37 -34 59 0 3 18 7 40 8 22 1 40 -2 40
-8z m-90 -66 c0 -5 -5 -15 -10 -23 -8 -12 -10 -11 -10 8 0 12 5 22 10 22 6 0
10 -3 10 -7z m-2458 -2283 c5 -157 -2 -160 -22 -10 -12 85 -2 277 11 205 3
-22 9 -110 11 -195z m1931 -677 c14 -68 14 -67 -23 -69 -30 -2 -32 0 -17 11
21 15 22 35 2 35 -8 0 -15 5 -15 10 0 6 7 10 15 10 9 0 12 6 9 15 -4 9 0 15 9
15 8 0 17 -12 20 -27z"/>
<path d="M6990 11170 c-8 -4 -31 -15 -51 -24 -41 -18 -48 -25 -80 -81 -63
-111 -87 -172 -93 -235 -3 -36 -9 -92 -12 -125 -3 -33 -12 -77 -20 -98 -29
-76 -9 -172 46 -227 23 -23 108 -28 128 -8 9 9 17 7 35 -10 13 -12 28 -22 33
-22 16 0 64 -55 64 -73 0 -25 -12 -21 -45 13 -16 17 -33 30 -39 30 -5 0 -18 7
-28 16 -15 15 -23 15 -62 4 -25 -7 -58 -9 -76 -5 l-32 7 4 -105 c1 -58 -1 -99
-5 -91 -4 8 -12 14 -16 14 -16 0 -41 -49 -34 -66 6 -16 7 -15 20 2 15 21 18 2
3 -26 -8 -15 -1 -39 34 -114 24 -51 65 -127 91 -167 57 -88 196 -234 280 -294
66 -47 239 -133 294 -147 112 -27 209 -38 341 -38 246 0 410 41 547 137 67 47
95 79 133 157 28 56 55 70 68 35 7 -17 9 -11 9 25 0 41 -3 47 -20 44 -11 -2
-27 -16 -36 -33 -90 -164 -195 -247 -378 -300 -93 -27 -309 -48 -403 -40 -125
12 -168 17 -218 31 -63 16 -166 63 -158 71 3 4 16 2 29 -4 33 -16 92 -31 177
-45 100 -17 405 -17 421 -1 10 10 -14 11 -107 6 -319 -15 -570 70 -734 250
-84 93 -170 200 -170 213 0 6 13 14 29 17 21 5 37 18 54 49 37 64 42 100 19
145 -37 71 -51 136 -32 148 10 6 40 -56 40 -85 0 -9 9 -25 20 -35 15 -14 28
-16 62 -10 24 4 67 8 96 10 60 4 192 42 192 55 0 20 34 40 66 40 42 0 72 -14
99 -46 29 -33 91 -24 114 18 10 18 27 31 44 35 16 3 31 13 34 22 8 22 54 71
68 71 16 0 60 49 80 90 10 19 24 40 31 45 7 6 22 29 34 52 30 59 94 128 130
142 16 6 44 16 60 22 18 7 33 21 36 34 3 13 19 35 35 51 54 52 32 90 -28 49
-21 -14 -54 -30 -73 -35 -22 -6 -41 -20 -51 -39 -18 -31 -32 -35 -194 -47
-105 -9 -117 -25 -57 -79 27 -26 32 -35 20 -35 -10 0 -23 9 -30 20 -15 24 -41
26 -58 5 -17 -20 -26 -19 -69 8 -19 12 -62 29 -95 37 -49 13 -61 20 -66 40 -3
15 -17 27 -35 33 -17 6 -34 17 -39 25 -21 35 -47 52 -83 52 -36 0 -103 19
-147 42 -20 10 -78 62 -173 156 -39 39 -43 47 -43 92 0 27 5 61 10 76 19 48
-2 76 -40 54z m990 -650 c0 -12 -45 -24 -59 -15 -22 13 -10 25 24 25 19 0 35
-4 35 -10z m-1218 -502 c-9 -9 -12 -7 -12 12 0 19 3 21 12 12 9 -9 9 -15 0
-24z m101 -153 c99 -147 180 -240 286 -328 56 -46 26 -42 -41 6 -80 57 -150
131 -215 228 -66 98 -125 208 -117 220 3 6 15 -7 26 -28 12 -21 39 -65 61 -98z"/>
<path d="M8050 10474 c0 -15 -7 -36 -17 -46 -9 -10 -12 -18 -6 -18 18 0 47 76
33 85 -6 4 -10 -6 -10 -21z"/>
<path d="M7957 10330 c-3 -11 -1 -20 4 -20 5 0 9 9 9 20 0 11 -2 20 -4 20 -2
0 -6 -9 -9 -20z"/>
<path d="M7919 10262 c-28 -39 -48 -99 -29 -87 5 3 10 14 10 23 0 9 12 33 26
54 15 21 25 40 23 42 -2 3 -16 -12 -30 -32z"/>
<path d="M6690 10164 c0 -14 4 -23 10 -19 6 3 10 15 10 26 0 10 -4 19 -10 19
-5 0 -10 -12 -10 -26z"/>
<path d="M7774 10099 c-3 -6 -1 -16 5 -22 8 -8 11 -5 11 11 0 24 -5 28 -16 11z"/>
<path d="M7782 9970 c0 -14 2 -19 5 -12 2 6 2 18 0 25 -3 6 -5 1 -5 -13z"/>
<path d="M8480 9872 c0 -18 12 -42 21 -42 14 0 10 26 -6 40 -9 8 -15 8 -15 2z"/>
<path d="M7716 9708 l-18 -33 21 25 c18 22 26 40 18 40 -1 0 -11 -15 -21 -32z"/>
<path d="M7686 9643 c-6 -14 -5 -15 5 -6 7 7 10 15 7 18 -3 3 -9 -2 -12 -12z"/>
<path d="M8531 9578 c0 -7 4 -22 9 -33 7 -17 9 -15 9 13 1 17 -3 32 -9 32 -5
0 -10 -6 -9 -12z"/>
<path d="M8550 9504 c0 -9 6 -28 14 -42 8 -15 18 -36 22 -47 7 -19 7 -19 12
-1 3 15 -34 106 -45 106 -1 0 -3 -7 -3 -16z"/>
<path d="M8158 9443 c7 -3 16 -2 19 1 4 3 -2 6 -13 5 -11 0 -14 -3 -6 -6z"/>
<path d="M8080 9420 c0 -13 11 -13 30 0 12 8 11 10 -7 10 -13 0 -23 -4 -23
-10z"/>
<path d="M8000 9400 c-12 -8 -9 -10 12 -10 15 0 30 5 33 10 8 13 -25 13 -45 0z"/>
<path d="M8775 9330 c-12 -4 -26 -14 -32 -21 -6 -8 -13 -89 -16 -192 -6 -177
-6 -178 16 -186 30 -12 52 -39 66 -83 7 -20 19 -42 27 -49 9 -7 29 -40 46 -73
33 -66 74 -116 96 -116 7 0 28 10 45 23 18 12 41 27 52 33 29 16 25 38 -7 42
-31 4 -35 18 -14 48 19 27 37 99 30 118 -9 24 -39 19 -54 -9 -15 -29 -44 -49
-82 -59 -22 -5 -30 -2 -39 15 -10 19 -9 21 5 16 22 -9 20 11 -5 52 -29 48 -13
52 26 6 43 -50 44 -41 5 26 -34 56 -31 80 3 37 19 -23 27 -26 57 -19 21 4 36
14 38 24 3 15 -2 17 -37 11 -37 -6 -41 -4 -53 20 -9 21 -9 37 -1 69 7 23 8 46
4 50 -4 4 -36 12 -72 18 -35 5 -71 17 -79 25 -13 14 -13 17 3 29 27 19 92 28
116 16 29 -16 33 -14 29 17 -3 23 -8 27 -40 30 -50 4 -69 27 -28 35 16 4 38 4
47 0 21 -7 -21 28 -54 46 -25 13 -69 14 -98 1z m105 -450 c0 -5 -4 -10 -10
-10 -5 0 -10 5 -10 10 0 6 5 10 10 10 6 0 10 -4 10 -10z"/>
<path d="M6860 9220 c0 -61 14 -82 28 -42 8 24 7 35 -9 58 l-19 29 0 -45z"/>
<path d="M8431 9164 c0 -11 3 -14 6 -6 3 7 2 16 -1 19 -3 4 -6 -2 -5 -13z"/>
<path d="M8582 9123 c-15 -49 -26 -53 -53 -20 -15 18 -20 19 -28 8 -5 -8 -16
-11 -25 -8 -10 4 -16 1 -16 -9 0 -8 7 -17 15 -20 8 -4 15 -14 15 -24 0 -11 5
-22 10 -25 6 -3 10 -19 10 -35 0 -16 5 -32 10 -35 6 -3 10 -19 10 -36 0 -19 5
-29 15 -29 12 0 15 -13 15 -57 0 -32 5 -65 10 -73 7 -11 10 -5 10 23 0 21 5
47 10 57 6 12 9 81 8 172 -3 143 -4 150 -16 111z"/>
<path d="M6902 9118 c-9 -12 -15 -73 -13 -140 2 -52 19 -28 26 35 3 34 8 74
11 90 6 28 -6 36 -24 15z"/>
<path d="M8210 9114 c0 -10 105 -203 109 -199 7 8 -90 205 -101 205 -4 0 -8
-3 -8 -6z"/>
<path d="M8018 9088 c-21 -6 -38 -14 -38 -19 0 -18 29 -21 52 -5 33 24 56 20
73 -14 22 -43 20 -74 -5 -67 -21 5 -29 -16 -10 -28 6 -3 10 -15 10 -26 0 -13
11 -25 33 -34 38 -16 57 -47 55 -90 0 -16 9 -46 21 -65 12 -19 24 -43 27 -52
4 -10 10 -18 15 -18 5 0 9 -5 9 -11 0 -16 120 -258 132 -265 5 -3 7 -12 4 -20
-7 -17 3 -44 15 -44 14 0 10 83 -6 103 -8 12 -11 31 -8 51 3 22 0 38 -11 49
-9 8 -16 26 -16 38 0 21 -13 70 -31 114 -4 11 -11 30 -14 43 -4 12 -11 22 -16
22 -6 0 -7 9 -4 20 4 13 1 22 -9 26 -9 3 -16 15 -16 25 0 11 -4 27 -9 37 -5 9
-17 34 -26 55 -9 20 -20 37 -25 37 -6 0 -10 6 -10 14 0 8 -10 36 -22 63 -31
70 -76 86 -170 61z"/>
<path d="M8722 8898 c3 -7 13 -15 22 -16 12 -3 17 1 14 10 -3 7 -13 15 -22 16
-12 3 -17 -1 -14 -10z"/>
<path d="M9112 8888 c2 -15 11 -24 26 -26 18 -3 22 1 22 22 0 21 -5 26 -26 26
-21 0 -25 -4 -22 -22z"/>
<path d="M8557 8651 c-11 -52 -8 -106 5 -119 15 -15 48 -16 48 -2 0 6 -9 10
-20 10 -27 0 -34 22 -21 63 7 21 8 43 3 57 -8 23 -9 22 -15 -9z"/>
<path d="M7370 8604 c0 -4 15 -23 33 -43 34 -39 36 -42 131 -159 32 -40 69
-81 80 -90 12 -9 31 -29 43 -45 11 -15 56 -66 99 -113 44 -47 93 -101 109
-119 17 -19 59 -66 94 -105 36 -39 71 -81 80 -93 8 -12 34 -42 57 -67 24 -25
56 -61 73 -80 16 -19 32 -32 34 -30 9 9 -209 288 -278 357 -69 69 -99 100
-205 222 -67 76 -83 93 -232 249 -65 68 -118 120 -118 116z"/>
<path d="M8536 8513 c-3 -3 -6 -17 -6 -29 0 -13 -5 -26 -11 -30 -8 -5 -10 -46
-7 -135 5 -123 1 -149 -25 -149 -5 0 -7 13 -4 30 4 16 3 32 -2 35 -5 2 -12 20
-15 38 -4 24 -11 33 -26 33 -21 0 -28 -30 -10 -41 5 -3 9 -18 8 -33 0 -15 7
-65 15 -112 14 -81 11 -153 -8 -202 -4 -10 -4 -18 -1 -18 4 0 19 25 33 57 27
58 40 128 49 268 4 44 10 85 14 90 11 15 22 193 12 199 -5 3 -12 3 -16 -1z"/>
<path d="M7370 7824 c0 -12 161 -232 230 -314 88 -105 249 -270 263 -270 6 0
-21 33 -59 73 -61 63 -146 159 -197 222 -79 97 -158 199 -187 242 -31 47 -50
64 -50 47z"/>
<path d="M7310 7433 c0 -21 60 -120 101 -168 85 -98 169 -220 169 -245 0 -10
5 -22 10 -25 14 -8 13 -138 -1 -152 -16 -16 4 -233 22 -233 12 0 11 -87 -1
-95 -5 -3 -10 -15 -10 -26 0 -10 -6 -29 -12 -40 -10 -17 -10 -23 0 -26 14 -6
16 -49 2 -58 -5 -3 -10 -17 -10 -31 0 -13 -4 -24 -8 -24 -9 0 -31 -47 -51
-111 -14 -44 -14 -99 -1 -99 6 0 10 6 10 13 0 13 60 98 86 122 10 10 33 43 66
100 37 61 59 120 54 141 -3 12 -3 30 0 38 7 19 31 21 37 4 3 -10 7 -10 19 0
12 10 16 30 15 83 -2 84 4 99 33 82 29 -19 30 -17 30 28 0 35 -8 51 -47 98
-26 31 -69 76 -95 100 -27 25 -48 50 -48 56 0 6 -17 31 -37 57 -21 25 -59 75
-84 109 -147 204 -249 328 -249 302z m338 -805 c-6 -18 -28 -21 -28 -4 0 9 7
16 16 16 9 0 14 -5 12 -12z m-11 -130 c-3 -8 -6 -5 -6 6 -1 11 2 17 5 13 3 -3
4 -12 1 -19z"/>
<path d="M8687 7362 c-20 -21 -37 -43 -37 -48 0 -6 -13 -22 -29 -37 -16 -14
-37 -43 -46 -64 -9 -21 -21 -45 -25 -53 -5 -8 -21 -40 -36 -70 -15 -30 -33
-62 -39 -70 -7 -8 -23 -35 -36 -60 -14 -25 -43 -72 -65 -105 -22 -33 -43 -67
-47 -75 -3 -8 -36 -58 -73 -110 -83 -117 -58 -100 34 24 98 131 143 200 194
296 119 225 162 294 220 353 16 16 28 35 28 43 0 19 -1 19 -43 -24z"/>
<path d="M8068 6471 c-37 -33 -80 -74 -96 -92 -39 -47 -95 -129 -90 -135 3 -2
25 20 49 48 24 29 84 95 133 146 49 50 85 92 80 92 -5 0 -39 -27 -76 -59z"/>
<path d="M7768 6147 c-77 -77 -258 -281 -258 -290 0 -2 -16 -21 -35 -41 -19
-21 -35 -43 -35 -49 0 -6 19 11 43 38 23 27 67 77 97 110 30 34 73 81 94 106
21 24 75 81 120 127 44 45 75 82 69 82 -6 0 -49 -38 -95 -83z"/>
<path d="M8609 5870 c-3 -53 0 -182 5 -187 3 -3 6 39 6 95 0 56 -2 102 -5 102
-3 0 -5 -4 -6 -10z"/>
<path d="M8578 5611 c-3 -17 -1 -31 3 -31 13 0 22 41 11 52 -6 6 -11 -1 -14
-21z"/>
<path d="M7986 5103 c-3 -3 -3 -10 0 -14 7 -12 34 -11 34 0 0 11 -26 22 -34
14z"/>
<path d="M4217 13229 c12 -12 24 -21 27 -18 2 2 -8 13 -22 23 l-27 19 22 -24z"/>
<path d="M11266 13235 c-3 -8 -1 -15 4 -15 6 0 10 7 10 15 0 8 -2 15 -4 15 -2
0 -6 -7 -10 -15z"/>
<path d="M3270 13205 c7 -8 17 -15 22 -15 6 0 5 7 -2 15 -7 8 -17 15 -22 15
-6 0 -5 -7 2 -15z"/>
<path d="M10995 13189 c-4 -6 -5 -12 -2 -15 2 -3 7 2 10 11 7 17 1 20 -8 4z"/>
<path d="M12568 13193 c7 -3 16 -2 19 1 4 3 -2 6 -13 5 -11 0 -14 -3 -6 -6z"/>
<path d="M3660 13175 c7 -8 17 -15 22 -15 6 0 5 7 -2 15 -7 8 -17 15 -22 15
-6 0 -5 -7 2 -15z"/>
<path d="M11680 13180 c0 -5 7 -10 15 -10 8 0 15 5 15 10 0 6 -7 10 -15 10 -8
0 -15 -4 -15 -10z"/>
<path d="M12480 13180 c0 -5 5 -10 10 -10 6 0 10 5 10 10 0 6 -4 10 -10 10 -5
0 -10 -4 -10 -10z"/>
<path d="M12456 13155 c4 -8 8 -15 10 -15 2 0 4 7 4 15 0 8 -4 15 -10 15 -5 0
-7 -7 -4 -15z"/>
<path d="M10950 13121 c0 -5 7 -11 14 -14 10 -4 13 -1 9 9 -6 15 -23 19 -23 5z"/>
<path d="M11195 13110 c-3 -5 -1 -10 4 -10 6 0 11 5 11 10 0 6 -2 10 -4 10 -3
0 -8 -4 -11 -10z"/>
<path d="M3390 13106 c0 -2 7 -9 15 -16 9 -7 15 -8 15 -2 0 5 -7 12 -15 16 -8
3 -15 4 -15 2z"/>
<path d="M4410 13065 c7 -8 17 -15 22 -15 5 0 3 7 -6 15 -8 8 -18 15 -22 15
-3 0 -1 -7 6 -15z"/>
<path d="M12965 13060 c21 -24 26 -25 19 -6 -3 8 -13 17 -22 21 -13 5 -13 2 3
-15z"/>
<path d="M3815 13040 c21 -24 26 -25 19 -6 -3 8 -13 17 -22 21 -13 5 -13 2 3
-15z"/>
<path d="M4440 13036 c0 -2 7 -7 16 -10 8 -3 12 -2 9 4 -6 10 -25 14 -25 6z"/>
<path d="M4800 13020 c0 -13 5 -20 13 -17 6 2 12 10 12 17 0 7 -6 15 -12 18
-8 2 -13 -5 -13 -18z"/>
<path d="M11135 13010 c-3 -5 -1 -10 4 -10 6 0 11 5 11 10 0 6 -2 10 -4 10 -3
0 -8 -4 -11 -10z"/>
<path d="M4181 12994 c0 -11 3 -14 6 -6 3 7 2 16 -1 19 -3 4 -6 -2 -5 -13z"/>
<path d="M4740 12969 c0 -5 5 -7 10 -4 6 3 10 8 10 11 0 2 -4 4 -10 4 -5 0
-10 -5 -10 -11z"/>
<path d="M4545 12950 c10 -11 20 -20 23 -20 3 0 -3 9 -13 20 -10 11 -20 20
-23 20 -3 0 3 -9 13 -20z"/>
<path d="M3580 12951 c0 -5 7 -12 16 -15 14 -5 15 -4 4 9 -14 17 -20 19 -20 6z"/>
<path d="M4620 12880 c0 -5 6 -10 14 -10 8 0 18 5 21 10 3 6 -3 10 -14 10 -12
0 -21 -4 -21 -10z"/>
<path d="M3755 12810 c3 -5 8 -10 11 -10 2 0 4 5 4 10 0 6 -5 10 -11 10 -5 0
-7 -4 -4 -10z"/>
<path d="M13085 12799 c-4 -12 -2 -26 4 -32 8 -8 11 -2 11 21 0 37 -6 41 -15
11z"/>
<path d="M3860 12725 c13 -14 26 -25 28 -25 3 0 -5 11 -18 25 -13 14 -26 25
-28 25 -3 0 5 -11 18 -25z"/>
<path d="M13071 12654 c0 -11 3 -14 6 -6 3 7 2 16 -1 19 -3 4 -6 -2 -5 -13z"/>
<path d="M12268 12653 c6 -2 18 -2 25 0 6 3 1 5 -13 5 -14 0 -19 -2 -12 -5z"/>
<path d="M4160 12535 c-7 -8 -8 -15 -2 -15 5 0 15 7 22 15 7 8 8 15 2 15 -5 0
-15 -7 -22 -15z"/>
<path d="M2484 12469 c-32 -33 -74 -69 -91 -80 -36 -23 -41 -40 -18 -63 8 -8
15 -19 15 -25 0 -6 5 -11 11 -11 7 0 8 7 4 18 -20 47 -18 53 46 115 35 34 74
70 87 79 13 9 19 18 14 21 -5 4 -35 -21 -68 -54z"/>
<path d="M12954 12469 c-22 -24 -24 -29 -8 -21 24 13 49 40 42 47 -2 3 -18 -9
-34 -26z"/>
<path d="M11886 12475 c-11 -8 -18 -16 -15 -18 2 -1 15 -11 29 -22 l24 -20
-16 26 c-13 20 -14 29 -5 38 15 15 6 13 -17 -4z"/>
<path d="M12418 12393 c12 -2 32 -2 45 0 12 2 2 4 -23 4 -25 0 -35 -2 -22 -4z"/>
<path d="M12798 12393 c6 -2 18 -2 25 0 6 3 1 5 -13 5 -14 0 -19 -2 -12 -5z"/>
<path d="M2968 12333 c7 -3 16 -2 19 1 4 3 -2 6 -13 5 -11 0 -14 -3 -6 -6z"/>
<path d="M2410 12270 c0 -5 5 -10 11 -10 5 0 7 5 4 10 -3 6 -8 10 -11 10 -2 0
-4 -4 -4 -10z"/>
<path d="M3140 12270 c0 -5 5 -10 11 -10 5 0 7 5 4 10 -3 6 -8 10 -11 10 -2 0
-4 -4 -4 -10z"/>
<path d="M3185 12250 c3 -5 8 -10 11 -10 2 0 4 5 4 10 0 6 -5 10 -11 10 -5 0
-7 -4 -4 -10z"/>
<path d="M2430 12230 c0 -5 5 -10 11 -10 5 0 7 5 4 10 -3 6 -8 10 -11 10 -2 0
-4 -4 -4 -10z"/>
<path d="M12070 12237 c0 -2 15 -16 33 -33 l32 -29 -29 33 c-28 30 -36 37 -36
29z"/>
<path d="M12390 12215 c13 -14 26 -23 28 -20 7 7 -29 45 -41 45 -6 0 0 -11 13
-25z"/>
<path d="M2450 12201 c0 -6 4 -13 10 -16 6 -3 7 1 4 9 -7 18 -14 21 -14 7z"/>
<path d="M3305 12200 c3 -5 11 -10 16 -10 6 0 7 5 4 10 -3 6 -11 10 -16 10 -6
0 -7 -4 -4 -10z"/>
<path d="M2810 12180 c0 -5 5 -10 10 -10 6 0 10 5 10 10 0 6 -4 10 -10 10 -5
0 -10 -4 -10 -10z"/>
<path d="M2846 12161 c5 -5 20 -12 34 -16 24 -7 24 -7 5 9 -21 16 -56 23 -39
7z"/>
<path d="M3396 12162 c12 -11 64 -33 64 -27 0 5 -56 35 -67 35 -4 0 -3 -4 3
-8z"/>
<path d="M12140 12166 c0 -2 8 -10 18 -17 15 -13 16 -12 3 4 -13 16 -21 21
-21 13z"/>
<path d="M2725 12130 c3 -5 8 -10 11 -10 2 0 4 5 4 10 0 6 -5 10 -11 10 -5 0
-7 -4 -4 -10z"/>
<path d="M2910 12130 c0 -5 5 -10 11 -10 5 0 7 5 4 10 -3 6 -8 10 -11 10 -2 0
-4 -4 -4 -10z"/>
<path d="M3480 12131 c0 -9 51 -34 57 -27 2 2 -10 11 -26 19 -17 9 -31 12 -31
8z"/>
<path d="M2507 12096 c10 -13 19 -23 21 -21 7 6 -19 45 -29 45 -5 0 -2 -11 8
-24z"/>
<path d="M2945 12110 c4 -6 11 -8 16 -5 14 9 11 15 -7 15 -8 0 -12 -5 -9 -10z"/>
<path d="M2740 12100 c0 -5 5 -10 11 -10 5 0 7 5 4 10 -3 6 -8 10 -11 10 -2 0
-4 -4 -4 -10z"/>
<path d="M2981 12096 c12 -10 60 -16 54 -6 -3 5 -18 10 -32 10 -15 0 -24 -2
-22 -4z"/>
<path d="M12210 12096 c0 -2 8 -10 18 -17 15 -13 16 -12 3 4 -13 16 -21 21
-21 13z"/>
<path d="M3616 12065 c10 -8 24 -14 29 -14 6 0 1 6 -9 14 -11 8 -24 15 -30 15
-5 0 -1 -7 10 -15z"/>
<path d="M12533 12050 c6 -17 17 -30 24 -30 21 0 14 24 -11 42 l-24 17 11 -29z"/>
<path d="M2780 12028 c0 -18 18 -34 28 -24 3 4 -2 14 -11 23 -16 16 -17 16
-17 1z"/>
<path d="M3015 11990 c-27 -27 -47 -52 -44 -55 3 -2 27 18 54 45 27 27 47 52
44 55 -3 2 -27 -18 -54 -45z"/>
<path d="M3590 12015 c-7 -8 -8 -15 -2 -15 5 0 15 7 22 15 7 8 8 15 2 15 -5 0
-15 -7 -22 -15z"/>
<path d="M12300 12007 c0 -2 15 -16 33 -33 l32 -29 -29 33 c-28 30 -36 37 -36
29z"/>
<path d="M12485 11985 c-28 -29 -31 -37 -12 -29 13 5 52 54 43 54 -3 0 -17
-11 -31 -25z"/>
<path d="M2585 11950 c3 -5 8 -10 11 -10 2 0 4 5 4 10 0 6 -5 10 -11 10 -5 0
-7 -4 -4 -10z"/>
<path d="M3259 11943 c-8 -10 -21 -27 -29 -38 -15 -20 -15 -20 9 0 21 18 47
55 38 55 -2 0 -10 -8 -18 -17z"/>
<path d="M2830 11940 c0 -5 5 -10 11 -10 5 0 7 5 4 10 -3 6 -8 10 -11 10 -2 0
-4 -4 -4 -10z"/>
<path d="M2081 11904 c-25 -42 -18 -60 9 -24 16 21 21 23 45 12 39 -18 41 -15
10 18 -16 17 -32 30 -36 30 -4 0 -17 -16 -28 -36z"/>
<path d="M2604 11918 c3 -7 9 -21 12 -30 4 -10 10 -18 15 -18 5 0 9 -8 10 -17
0 -11 3 -13 6 -6 2 7 -5 29 -17 48 -21 34 -38 49 -26 23z"/>
<path d="M3405 11920 c3 -5 8 -10 11 -10 2 0 4 5 4 10 0 6 -5 10 -11 10 -5 0
-7 -4 -4 -10z"/>
<path d="M12387 11914 c-8 -8 1 -24 14 -24 5 0 9 7 9 15 0 15 -12 20 -23 9z"/>
<path d="M3440 11899 c0 -5 5 -7 10 -4 6 3 10 8 10 11 0 2 -4 4 -10 4 -5 0
-10 -5 -10 -11z"/>
<path d="M3487 11903 c-10 -3 -16 -10 -14 -16 6 -19 41 -14 45 6 4 17 1 18
-31 10z"/>
<path d="M2180 11870 c0 -5 9 -14 21 -20 19 -11 20 -10 9 9 -11 22 -30 29 -30
11z"/>
<path d="M3161 11830 c-55 -52 -59 -64 -10 -30 25 18 77 80 67 80 -3 0 -28
-22 -57 -50z"/>
<path d="M2031 11814 c-12 -20 -20 -38 -18 -41 3 -2 14 13 26 33 12 20 20 38
18 41 -3 2 -14 -13 -26 -33z"/>
<path d="M2241 11822 c10 -16 6 -30 -24 -80 -20 -34 -33 -62 -29 -62 9 1 62
77 62 90 0 6 5 10 10 10 14 0 13 33 -2 48 -18 18 -30 14 -17 -6z"/>
<path d="M2660 11825 c1 -16 39 -82 40 -68 0 7 -9 27 -20 45 -11 18 -20 29
-20 23z"/>
<path d="M12842 11735 c0 -16 2 -22 5 -12 2 9 2 23 0 30 -3 6 -5 -1 -5 -18z"/>
<path d="M1970 11730 c0 -5 5 -10 10 -10 6 0 10 5 10 10 0 6 -4 10 -10 10 -5
0 -10 -4 -10 -10z"/>
<path d="M2715 11715 c7 -33 12 -41 21 -33 3 4 -2 19 -11 35 l-16 28 6 -30z"/>
<path d="M2160 11648 c-12 -22 -12 -22 6 -6 10 10 15 20 12 24 -4 3 -12 -5
-18 -18z"/>
<path d="M2740 11661 c0 -5 5 -13 10 -16 6 -3 10 -2 10 4 0 5 -4 13 -10 16 -5
3 -10 2 -10 -4z"/>
<path d="M2460 11614 c0 -9 -10 -29 -22 -45 -62 -79 -70 -90 -64 -96 6 -7 37
27 68 77 12 19 27 38 32 42 11 7 66 -22 103 -55 13 -11 26 -17 30 -13 5 5 -1
13 -11 20 -11 6 -38 28 -61 49 -44 39 -75 48 -75 21z"/>
<path d="M13905 11620 c-3 -5 -2 -10 4 -10 5 0 13 5 16 10 3 6 2 10 -4 10 -5
0 -13 -4 -16 -10z"/>
<path d="M13999 11606 c27 -29 33 -32 25 -13 -2 7 -14 19 -27 26 -21 13 -21
12 2 -13z"/>
<path d="M2122 11590 c-22 -30 -30 -56 -13 -45 11 6 43 67 38 72 -2 1 -13 -11
-25 -27z"/>
<path d="M1895 11602 c-5 -4 -18 -23 -28 -42 l-18 -35 23 25 c13 14 27 33 31
43 7 19 6 20 -8 9z"/>
<path d="M13845 11600 c-3 -5 3 -10 14 -10 11 0 23 5 26 10 3 6 -3 10 -14 10
-11 0 -23 -4 -26 -10z"/>
<path d="M13790 11580 c0 -5 7 -7 15 -4 8 4 15 8 15 10 0 2 -7 4 -15 4 -8 0
-15 -4 -15 -10z"/>
<path d="M3045 11550 c3 -5 8 -10 11 -10 2 0 4 5 4 10 0 6 -5 10 -11 10 -5 0
-7 -4 -4 -10z"/>
<path d="M14072 11548 c7 -7 22 -20 33 -28 15 -10 14 -7 -4 13 -14 15 -29 27
-33 27 -5 0 -3 -6 4 -12z"/>
<path d="M2060 11498 c-11 -18 -20 -37 -19 -43 0 -5 6 -1 12 9 7 10 20 26 30
35 19 17 22 31 7 31 -6 0 -19 -15 -30 -32z"/>
<path d="M1832 11508 c-6 -6 -12 -16 -12 -22 0 -5 -7 -17 -16 -27 -9 -10 -14
-24 -12 -31 3 -7 16 5 32 30 27 43 32 74 8 50z"/>
<path d="M2830 11500 c0 -5 5 -10 11 -10 5 0 7 5 4 10 -3 6 -8 10 -11 10 -2 0
-4 -4 -4 -10z"/>
<path d="M3075 11500 c3 -5 8 -10 11 -10 2 0 4 5 4 10 0 6 -5 10 -11 10 -5 0
-7 -4 -4 -10z"/>
<path d="M2590 11444 c-17 -25 -25 -44 -19 -42 7 2 17 13 23 24 6 10 13 21 16
24 20 20 31 40 22 40 -6 0 -25 -21 -42 -46z"/>
<path d="M3090 11470 c0 -5 5 -10 11 -10 5 0 7 5 4 10 -3 6 -8 10 -11 10 -2 0
-4 -4 -4 -10z"/>
<path d="M2850 11460 c0 -5 5 -10 11 -10 5 0 7 5 4 10 -3 6 -8 10 -11 10 -2 0
-4 -4 -4 -10z"/>
<path d="M14190 11446 c14 -13 27 -22 29 -20 7 6 -31 44 -43 44 -6 0 1 -11 14
-24z"/>
<path d="M2350 11445 c-7 -9 -10 -18 -7 -21 3 -3 10 4 17 15 13 25 8 27 -10 6z"/>
<path d="M2870 11431 c0 -5 5 -13 10 -16 6 -3 10 -2 10 4 0 5 -4 13 -10 16 -5
3 -10 2 -10 -4z"/>
<path d="M2033 11415 c4 -9 7 -21 7 -26 0 -5 6 -9 14 -9 7 0 19 -7 26 -15 7
-8 20 -15 29 -15 12 1 10 6 -9 21 -14 11 -36 30 -49 41 -20 17 -23 18 -18 3z"/>
<path d="M3110 11415 c-7 -9 -11 -18 -8 -20 3 -3 11 1 18 10 7 9 11 18 8 20
-3 3 -11 -1 -18 -10z"/>
<path d="M1760 11396 c0 -8 -11 -27 -25 -42 -14 -15 -25 -30 -25 -34 0 -8 93
-51 98 -45 3 2 -9 12 -27 22 -31 18 -39 40 -22 59 15 16 23 54 12 54 -6 0 -11
-7 -11 -14z"/>
<path d="M2301 11372 c-36 -46 -42 -75 -10 -46 23 21 53 73 46 80 -3 3 -19
-13 -36 -34z"/>
<path d="M14251 11373 c7 -12 15 -20 18 -17 3 2 -3 12 -13 22 -17 16 -18 16
-5 -5z"/>
<path d="M2540 11365 c-8 -9 -8 -15 -2 -15 12 0 26 19 19 26 -2 2 -10 -2 -17
-11z"/>
<path d="M13800 11351 c0 -5 7 -12 16 -15 24 -9 27 -7 10 9 -17 17 -26 19 -26
6z"/>
<path d="M3050 11335 c-7 -8 -8 -15 -2 -15 5 0 15 7 22 15 7 8 8 15 2 15 -5 0
-15 -7 -22 -15z"/>
<path d="M2150 11330 c0 -5 5 -10 11 -10 5 0 7 5 4 10 -3 6 -8 10 -11 10 -2 0
-4 -4 -4 -10z"/>
<path d="M2494 11301 c-26 -40 -30 -58 -9 -43 14 10 47 74 41 79 -2 3 -17 -14
-32 -36z"/>
<path d="M12973 11323 c9 -2 23 -2 30 0 6 3 -1 5 -18 5 -16 0 -22 -2 -12 -5z"/>
<path d="M13073 11323 c9 -2 23 -2 30 0 6 3 -1 5 -18 5 -16 0 -22 -2 -12 -5z"/>
<path d="M2180 11312 c0 -12 19 -26 26 -19 2 2 -2 10 -11 17 -9 8 -15 8 -15 2z"/>
<path d="M2955 11270 c3 -5 8 -10 11 -10 2 0 4 5 4 10 0 6 -5 10 -11 10 -5 0
-7 -4 -4 -10z"/>
<path d="M2988 11261 c-19 -19 -24 -41 -9 -41 8 0 41 43 41 55 0 10 -15 4 -32
-14z"/>
<path d="M1918 11200 c33 -22 64 -40 68 -40 3 0 23 -13 44 -30 40 -32 50 -36
50 -20 0 13 -190 128 -214 130 -6 0 18 -18 52 -40z"/>
<path d="M2447 11223 c-4 -3 -7 -11 -7 -17 0 -6 5 -5 12 2 6 6 9 14 7 17 -3 3
-9 2 -12 -2z"/>
<path d="M13315 11200 c3 -5 8 -10 11 -10 2 0 4 5 4 10 0 6 -5 10 -11 10 -5 0
-7 -4 -4 -10z"/>
<path d="M14120 11186 c0 -8 4 -17 9 -20 5 -4 7 3 4 14 -6 23 -13 26 -13 6z"/>
<path d="M13150 11180 c0 -5 5 -10 10 -10 6 0 10 5 10 10 0 6 -4 10 -10 10 -5
0 -10 -4 -10 -10z"/>
<path d="M13350 11186 c0 -9 38 -22 85 -29 35 -6 37 -5 15 5 -46 20 -100 33
-100 24z"/>
<path d="M13115 11170 c-3 -5 1 -10 10 -10 9 0 13 5 10 10 -3 6 -8 10 -10 10
-2 0 -7 -4 -10 -10z"/>
<path d="M14351 11164 c0 -11 3 -14 6 -6 3 7 2 16 -1 19 -3 4 -6 -2 -5 -13z"/>
<path d="M13058 11153 c-20 -5 -25 -33 -5 -33 17 1 48 26 40 33 -7 7 -8 7 -35
0z"/>
<path d="M13480 11150 c0 -5 7 -10 16 -10 8 0 12 5 9 10 -3 6 -10 10 -16 10
-5 0 -9 -4 -9 -10z"/>
<path d="M13545 11130 c3 -5 11 -10 16 -10 6 0 7 5 4 10 -3 6 -11 10 -16 10
-6 0 -7 -4 -4 -10z"/>
<path d="M2480 11121 c0 -5 5 -13 10 -16 6 -3 10 -2 10 4 0 5 -4 13 -10 16 -5
3 -10 2 -10 -4z"/>
<path d="M13070 11101 c0 -5 5 -13 10 -16 6 -3 10 -2 10 4 0 5 -4 13 -10 16
-5 3 -10 2 -10 -4z"/>
<path d="M2105 11080 c3 -5 10 -10 16 -10 5 0 9 5 9 10 0 6 -7 10 -16 10 -8 0
-12 -4 -9 -10z"/>
<path d="M2530 11080 c0 -5 4 -10 9 -10 6 0 29 -13 53 -28 51 -34 78 -45 78
-32 0 6 -7 10 -15 10 -8 0 -15 5 -15 10 0 6 -6 10 -14 10 -8 0 -21 6 -28 13
-15 13 -55 37 -63 37 -3 0 -5 -4 -5 -10z"/>
<path d="M13778 11063 c7 -3 16 -2 19 1 4 3 -2 6 -13 5 -11 0 -14 -3 -6 -6z"/>
<path d="M13838 11043 c7 -3 16 -2 19 1 4 3 -2 6 -13 5 -11 0 -14 -3 -6 -6z"/>
<path d="M14087 11043 c-10 -9 -9 -23 2 -23 5 0 11 7 15 15 5 15 -5 20 -17 8z"/>
<path d="M2205 11020 c3 -5 11 -10 16 -10 6 0 7 5 4 10 -3 6 -11 10 -16 10 -6
0 -7 -4 -4 -10z"/>
<path d="M13915 11020 c27 -12 43 -12 25 0 -8 5 -22 9 -30 9 -10 0 -8 -3 5 -9z"/>
<path d="M14010 11010 c0 -5 6 -10 14 -10 8 0 18 5 21 10 3 6 -3 10 -14 10
-12 0 -21 -4 -21 -10z"/>
<path d="M14347 11003 c-4 -3 -7 -11 -7 -17 0 -6 5 -5 12 2 6 6 9 14 7 17 -3
3 -9 2 -12 -2z"/>
<path d="M2250 10993 c0 -12 110 -76 118 -69 4 5 -101 76 -113 76 -3 0 -5 -3
-5 -7z"/>
<path d="M2680 10990 c0 -5 8 -11 18 -14 10 -3 34 -22 54 -41 30 -29 37 -33
48 -21 9 12 5 18 -22 32 -18 9 -40 22 -48 29 -21 17 -50 26 -50 15z"/>
<path d="M1520 10970 c0 -13 5 -18 15 -14 8 4 15 12 15 20 0 8 -7 14 -15 14
-8 0 -15 -9 -15 -20z"/>
<path d="M13450 10940 c0 -5 5 -10 11 -10 5 0 7 5 4 10 -3 6 -8 10 -11 10 -2
0 -4 -4 -4 -10z"/>
<path d="M13505 10922 c6 -5 21 -13 35 -17 17 -5 22 -4 15 3 -5 5 -21 13 -35
17 -17 5 -22 4 -15 -3z"/>
<path d="M2395 10900 c3 -5 8 -10 11 -10 2 0 4 5 4 10 0 6 -5 10 -11 10 -5 0
-7 -4 -4 -10z"/>
<path d="M13430 10881 c0 -5 5 -13 10 -16 6 -3 10 -2 10 4 0 5 -4 13 -10 16
-5 3 -10 2 -10 -4z"/>
<path d="M14275 10870 c-10 -11 -13 -20 -7 -20 6 0 16 9 22 20 6 11 9 20 7 20
-2 0 -12 -9 -22 -20z"/>
<path d="M1780 10870 c0 -5 5 -10 11 -10 5 0 7 5 4 10 -3 6 -8 10 -11 10 -2 0
-4 -4 -4 -10z"/>
<path d="M2440 10870 c0 -5 5 -10 10 -10 6 0 10 5 10 10 0 6 -4 10 -10 10 -5
0 -10 -4 -10 -10z"/>
<path d="M13635 10870 c3 -5 10 -10 16 -10 5 0 9 5 9 10 0 6 -7 10 -16 10 -8
0 -12 -4 -9 -10z"/>
<path d="M13670 10860 c0 -5 7 -10 16 -10 8 0 12 5 9 10 -3 6 -10 10 -16 10
-5 0 -9 -4 -9 -10z"/>
<path d="M2480 10856 c0 -2 8 -10 18 -17 15 -13 16 -12 3 4 -13 16 -21 21 -21
13z"/>
<path d="M13190 10850 c0 -5 5 -10 11 -10 5 0 7 5 4 10 -3 6 -8 10 -11 10 -2
0 -4 -4 -4 -10z"/>
<path d="M13725 10840 c3 -5 13 -10 21 -10 8 0 12 5 9 10 -3 6 -13 10 -21 10
-8 0 -12 -4 -9 -10z"/>
<path d="M13770 10831 c0 -10 24 -21 43 -21 7 0 3 7 -7 15 -22 17 -36 19 -36
6z"/>
<path d="M2720 10809 c0 -5 5 -7 10 -4 6 3 10 8 10 11 0 2 -4 4 -10 4 -5 0
-10 -5 -10 -11z"/>
<path d="M2570 10795 c7 -8 17 -15 22 -15 6 0 5 7 -2 15 -7 8 -17 15 -22 15
-6 0 -5 -7 2 -15z"/>
<path d="M13470 10805 c0 -12 42 -87 46 -82 2 2 -2 17 -11 33 -8 16 -15 35
-15 42 0 6 -4 12 -10 12 -5 0 -10 -2 -10 -5z"/>
<path d="M13845 10800 c3 -5 10 -10 16 -10 5 0 9 5 9 10 0 6 -7 10 -16 10 -8
0 -12 -4 -9 -10z"/>
<path d="M13912 10789 c5 -16 68 -25 68 -10 0 6 -6 11 -12 11 -7 0 -24 3 -37
7 -18 4 -23 2 -19 -8z"/>
<path d="M2695 10770 c-10 -12 -25 -18 -32 -16 -16 6 -17 -10 -2 -20 12 -7 67
42 58 51 -3 3 -14 -4 -24 -15z"/>
<path d="M13990 10778 c0 -17 57 -20 114 -6 l61 15 -87 -1 c-49 -1 -88 -4 -88
-8z"/>
<path d="M1445 10771 c-3 -6 3 -15 14 -20 29 -16 33 -14 19 9 -14 22 -24 25
-33 11z"/>
<path d="M13520 10700 c0 -5 5 -10 10 -10 6 0 10 5 10 10 0 6 -4 10 -10 10 -5
0 -10 -4 -10 -10z"/>
<path d="M13541 10670 c0 -8 6 -26 14 -40 13 -23 14 -23 15 -4 0 11 -7 29 -15
40 -11 14 -14 15 -14 4z"/>
<path d="M13290 10660 c0 -5 5 -10 10 -10 6 0 10 5 10 10 0 6 -4 10 -10 10 -5
0 -10 -4 -10 -10z"/>
<path d="M14230 10659 c0 -5 5 -7 10 -4 6 3 10 8 10 11 0 2 -4 4 -10 4 -5 0
-10 -5 -10 -11z"/>
<path d="M1367 10593 c-4 -3 -7 -15 -7 -26 0 -16 3 -17 15 -7 8 7 15 19 15 26
0 15 -12 19 -23 7z"/>
<path d="M13580 10592 c0 -7 -22 -35 -49 -63 -62 -63 -46 -64 20 -1 38 36 47
50 39 62 -7 11 -10 11 -10 2z"/>
<path d="M1415 10570 c3 -5 8 -10 11 -10 2 0 4 5 4 10 0 6 -5 10 -11 10 -5 0
-7 -4 -4 -10z"/>
<path d="M1455 10550 c3 -5 11 -10 16 -10 6 0 7 5 4 10 -3 6 -11 10 -16 10 -6
0 -7 -4 -4 -10z"/>
<path d="M1954 10545 c36 -19 47 -19 22 0 -11 8 -27 15 -35 15 -9 0 -3 -7 13
-15z"/>
<path d="M2531 10557 c2 -1 13 -9 24 -17 19 -14 19 -14 6 3 -7 9 -18 17 -24
17 -6 0 -8 -1 -6 -3z"/>
<path d="M1543 10506 c9 -19 15 -22 25 -13 11 9 11 13 -4 24 -27 19 -33 16
-21 -11z"/>
<path d="M2020 10520 c0 -5 5 -10 10 -10 6 0 10 5 10 10 0 6 -4 10 -10 10 -5
0 -10 -4 -10 -10z"/>
<path d="M1340 10510 c0 -5 5 -10 10 -10 6 0 10 5 10 10 0 6 -4 10 -10 10 -5
0 -10 -4 -10 -10z"/>
<path d="M2058 10503 c7 -3 16 -2 19 1 4 3 -2 6 -13 5 -11 0 -14 -3 -6 -6z"/>
<path d="M13390 10481 c0 -6 4 -13 10 -16 6 -3 7 1 4 9 -7 18 -14 21 -14 7z"/>
<path d="M1331 10466 c-7 -8 -8 -17 -3 -20 6 -3 13 1 16 10 9 23 2 28 -13 10z"/>
<path d="M1530 10454 c0 -8 5 -12 10 -9 6 3 10 10 10 16 0 5 -4 9 -10 9 -5 0
-10 -7 -10 -16z"/>
<path d="M13428 10453 c-10 -2 -18 -8 -18 -13 0 -18 15 -17 34 1 19 19 17 21
-16 12z"/>
<path d="M14293 10433 c9 -2 25 -2 35 0 9 3 1 5 -18 5 -19 0 -27 -2 -17 -5z"/>
<path d="M14368 10433 c7 -3 16 -2 19 1 4 3 -2 6 -13 5 -11 0 -14 -3 -6 -6z"/>
<path d="M1316 10415 c-9 -26 -7 -32 5 -12 6 10 9 21 6 23 -2 3 -7 -2 -11 -11z"/>
<path d="M1521 10404 c0 -11 3 -14 6 -6 3 7 2 16 -1 19 -3 4 -6 -2 -5 -13z"/>
<path d="M1496 10354 c-4 -9 -4 -19 -1 -22 2 -3 7 3 11 12 4 9 4 19 1 22 -2 3
-7 -3 -11 -12z"/>
<path d="M1790 10336 c0 -20 11 -24 40 -15 16 4 19 7 8 8 -10 1 -18 6 -18 11
0 6 -7 10 -15 10 -8 0 -15 -6 -15 -14z"/>
<path d="M2470 10340 c-8 -5 -11 -12 -7 -16 4 -4 13 -2 19 4 15 15 7 24 -12
12z"/>
<path d="M13653 10323 c-15 -5 -17 -23 -4 -23 5 0 11 7 15 15 3 8 4 15 3 14
-1 0 -8 -3 -14 -6z"/>
<path d="M14751 10314 c0 -11 3 -14 6 -6 3 7 2 16 -1 19 -3 4 -6 -2 -5 -13z"/>
<path d="M1476 10294 c-5 -14 -4 -15 9 -4 17 14 19 20 6 20 -5 0 -12 -7 -15
-16z"/>
<path d="M1777 10274 c-8 -8 1 -24 14 -24 5 0 9 7 9 15 0 15 -12 20 -23 9z"/>
<path d="M1970 10250 c0 -16 4 -30 9 -30 12 0 24 37 16 50 -12 20 -25 10 -25
-20z"/>
<path d="M13846 10224 c-23 -23 -20 -30 4 -9 11 10 20 20 20 22 0 7 -9 2 -24
-13z"/>
<path d="M14562 10215 c0 -16 2 -22 5 -12 2 9 2 23 0 30 -3 6 -5 -1 -5 -18z"/>
<path d="M1445 10200 c-3 -5 -1 -10 4 -10 6 0 11 5 11 10 0 6 -2 10 -4 10 -3
0 -8 -4 -11 -10z"/>
<path d="M1766 10201 c-4 -7 -5 -15 -2 -18 9 -9 19 4 14 18 -4 11 -6 11 -12 0z"/>
<path d="M1956 10171 c-4 -7 -5 -15 -2 -18 9 -9 19 4 14 18 -4 11 -6 11 -12 0z"/>
<path d="M13584 10075 c0 -49 1 -71 3 -48 2 23 2 64 0 90 -2 26 -3 8 -3 -42z"/>
<path d="M14751 10124 c0 -11 3 -14 6 -6 3 7 2 16 -1 19 -3 4 -6 -2 -5 -13z"/>
<path d="M14360 10123 c0 -4 5 -15 10 -23 8 -13 10 -13 10 2 0 9 -4 20 -10 23
-5 3 -10 3 -10 -2z"/>
<path d="M1936 10095 c-3 -8 -1 -15 4 -15 6 0 10 7 10 15 0 8 -2 15 -4 15 -2
0 -6 -7 -10 -15z"/>
<path d="M1731 10054 c0 -11 3 -14 6 -6 3 7 2 16 -1 19 -3 4 -6 -2 -5 -13z"/>
<path d="M14135 10051 c-3 -5 -1 -12 5 -16 5 -3 10 1 10 9 0 18 -6 21 -15 7z"/>
<path d="M14371 10044 c0 -11 3 -14 6 -6 3 7 2 16 -1 19 -3 4 -6 -2 -5 -13z"/>
<path d="M14480 10036 c0 -8 5 -18 10 -21 6 -3 10 3 10 14 0 12 -4 21 -10 21
-5 0 -10 -6 -10 -14z"/>
<path d="M1490 10032 c0 -5 7 -13 16 -16 10 -4 14 -1 12 6 -5 15 -28 23 -28
10z"/>
<path d="M1921 10024 c0 -11 3 -14 6 -6 3 7 2 16 -1 19 -3 4 -6 -2 -5 -13z"/>
<path d="M1535 10020 c-3 -5 1 -13 10 -16 22 -9 29 1 11 15 -10 8 -16 9 -21 1z"/>
<path d="M1177 10003 c-4 -3 -7 -13 -7 -22 1 -13 3 -13 11 2 11 19 8 33 -4 20z"/>
<path d="M1710 9999 c0 -5 5 -7 10 -4 6 3 10 8 10 11 0 2 -4 4 -10 4 -5 0 -10
-5 -10 -11z"/>
<path d="M1590 9996 c0 -2 7 -6 15 -10 8 -3 15 -1 15 4 0 6 -7 10 -15 10 -8 0
-15 -2 -15 -4z"/>
<path d="M1645 9980 c-3 -5 1 -10 10 -10 9 0 13 5 10 10 -3 6 -8 10 -10 10 -2
0 -7 -4 -10 -10z"/>
<path d="M1900 9959 c0 -5 5 -7 10 -4 6 3 10 8 10 11 0 2 -4 4 -10 4 -5 0 -10
-5 -10 -11z"/>
<path d="M1150 9934 c0 -8 5 -12 10 -9 6 4 8 11 5 16 -9 14 -15 11 -15 -7z"/>
<path d="M14580 9915 c43 -45 49 -45 13 0 -15 19 -32 35 -37 35 -6 0 5 -16 24
-35z"/>
<path d="M1130 9885 c0 -8 7 -15 15 -15 9 0 12 6 9 15 -4 8 -10 15 -15 15 -5
0 -9 -7 -9 -15z"/>
<path d="M1940 9870 c0 -5 7 -10 16 -10 8 0 12 5 9 10 -3 6 -10 10 -16 10 -5
0 -9 -4 -9 -10z"/>
<path d="M2048 9833 c7 -3 16 -2 19 1 4 3 -2 6 -13 5 -11 0 -14 -3 -6 -6z"/>
<path d="M1330 9820 c0 -5 5 -10 10 -10 6 0 10 5 10 10 0 6 -4 10 -10 10 -5 0
-10 -4 -10 -10z"/>
<path d="M2095 9820 c3 -5 15 -10 26 -10 11 0 17 5 14 10 -3 6 -15 10 -26 10
-11 0 -17 -4 -14 -10z"/>
<path d="M2165 9800 c3 -5 10 -10 16 -10 5 0 9 5 9 10 0 6 -7 10 -16 10 -8 0
-12 -4 -9 -10z"/>
<path d="M2275 9770 c-3 -5 1 -10 9 -10 9 0 16 5 16 10 0 6 -4 10 -9 10 -6 0
-13 -4 -16 -10z"/>
<path d="M1498 9763 c7 -3 16 -2 19 1 4 3 -2 6 -13 5 -11 0 -14 -3 -6 -6z"/>
<path d="M1530 9765 c0 -10 29 -24 34 -17 3 6 -3 12 -14 15 -11 3 -20 4 -20 2z"/>
<path d="M14185 9730 c-3 -5 -2 -10 4 -10 5 0 13 5 16 10 3 6 2 10 -4 10 -5 0
-13 -4 -16 -10z"/>
<path d="M1660 9720 c0 -5 7 -10 16 -10 8 0 12 5 9 10 -3 6 -10 10 -16 10 -5
0 -9 -4 -9 -10z"/>
<path d="M2271 9714 c0 -11 3 -14 6 -6 3 7 2 16 -1 19 -3 4 -6 -2 -5 -13z"/>
<path d="M13767 9719 c7 -7 15 -10 18 -7 3 3 -2 9 -12 12 -14 6 -15 5 -6 -5z"/>
<path d="M1730 9700 c0 -5 5 -10 11 -10 5 0 7 5 4 10 -3 6 -8 10 -11 10 -2 0
-4 -4 -4 -10z"/>
<path d="M1795 9680 c3 -5 8 -10 11 -10 2 0 4 5 4 10 0 6 -5 10 -11 10 -5 0
-7 -4 -4 -10z"/>
<path d="M14085 9680 c-3 -5 -1 -10 4 -10 6 0 11 5 11 10 0 6 -2 10 -4 10 -3
0 -8 -4 -11 -10z"/>
<path d="M2250 9650 c0 -5 5 -10 10 -10 6 0 10 5 10 10 0 6 -4 10 -10 10 -5 0
-10 -4 -10 -10z"/>
<path d="M2035 9610 c3 -5 8 -10 11 -10 2 0 4 5 4 10 0 6 -5 10 -11 10 -5 0
-7 -4 -4 -10z"/>
<path d="M2241 9594 c0 -11 3 -14 6 -6 3 7 2 16 -1 19 -3 4 -6 -2 -5 -13z"/>
<path d="M2158 9573 c7 -3 16 -2 19 1 4 3 -2 6 -13 5 -11 0 -14 -3 -6 -6z"/>
<path d="M2202 9558 c7 -19 38 -22 38 -4 0 10 -9 16 -21 16 -12 0 -19 -5 -17
-12z"/>
<path d="M14181 6563 c-97 -26 -209 -125 -242 -214 -34 -93 -39 -118 -39 -193
0 -139 61 -252 184 -344 115 -84 210 -109 349 -88 227 33 357 179 357 401 0
85 -8 119 -49 205 -31 66 -132 169 -195 200 -99 48 -257 62 -365 33z m219
-216 c94 -34 161 -97 181 -169 15 -59 -2 -136 -39 -170 -60 -55 -82 -63 -172
-62 -72 0 -93 4 -136 26 -120 62 -174 181 -125 276 38 75 101 110 196 111 33
0 76 -5 95 -12z"/>
<path d="M1558 6541 c-189 -61 -313 -234 -303 -424 4 -66 17 -112 51 -182 36
-74 89 -142 132 -168 43 -28 145 -42 160 -24 15 20 23 217 9 222 -7 2 -24 6
-39 9 -60 13 -118 91 -118 159 0 61 72 147 159 190 46 23 135 22 188 -2 44
-20 81 -68 103 -131 11 -32 10 -43 -14 -101 -14 -36 -26 -72 -26 -80 0 -16 53
-69 114 -114 49 -36 63 -28 97 56 42 100 49 131 49 203 0 52 -6 79 -24 117
-101 200 -226 290 -405 288 -45 0 -100 -8 -133 -18z"/>
<path d="M13880 5708 c-184 -79 -230 -121 -269 -249 -14 -46 -14 -176 0 -220
37 -114 130 -213 266 -280 85 -42 91 -44 183 -44 52 0 122 6 155 14 100 24
192 106 254 228 29 58 29 178 0 271 -22 70 -74 162 -91 162 -15 0 -168 -103
-168 -113 0 -4 13 -27 28 -50 31 -47 52 -102 52 -136 0 -63 -63 -121 -158
-144 -59 -15 -67 -15 -123 2 -75 24 -153 74 -177 114 -58 97 -26 193 74 218
24 6 50 20 60 30 16 18 16 23 -6 96 -35 119 -35 120 -80 101z"/>
<path d="M2257 5664 c-4 -4 -158 -10 -344 -15 -186 -4 -380 -11 -430 -15 -81
-6 -93 -9 -93 -25 0 -31 65 -188 83 -200 5 -4 46 -5 91 -3 l81 4 53 -107 c29
-60 69 -135 87 -168 19 -33 35 -66 35 -73 0 -8 -25 -42 -55 -77 -30 -34 -55
-65 -55 -69 0 -3 24 -44 52 -91 33 -53 59 -85 70 -85 9 0 27 15 39 33 35 49
96 118 404 452 50 54 109 120 132 147 l42 48 -36 68 c-20 37 -47 88 -59 114
-28 56 -74 85 -97 62z m-104 -221 c4 -3 -12 -27 -35 -52 -130 -144 -158 -169
-158 -140 0 6 -8 23 -19 37 -27 39 -71 121 -71 132 0 6 49 10 118 10 64 0 124
5 132 10 18 12 24 12 33 3z"/>
<path d="M2493 5087 c-15 -13 -55 -42 -88 -64 -82 -54 -111 -75 -252 -178 -67
-50 -148 -109 -180 -132 -32 -24 -76 -58 -97 -76 l-39 -33 54 -77 c29 -42 58
-77 65 -77 6 0 39 21 72 48 33 26 83 65 112 87 29 22 86 66 126 99 41 32 77
56 81 53 3 -4 -3 -26 -14 -49 -11 -24 -24 -54 -27 -68 -4 -14 -11 -34 -16 -45
-5 -11 -20 -54 -35 -95 -14 -41 -29 -84 -34 -95 -5 -11 -22 -54 -37 -95 -15
-41 -31 -79 -36 -85 -14 -16 -8 -55 15 -93 12 -20 29 -49 36 -64 8 -15 23 -37
33 -48 18 -19 21 -19 56 -5 48 20 162 90 361 221 24 16 51 34 59 39 165 108
259 176 266 192 7 18 -113 155 -130 149 -7 -3 -50 -31 -95 -63 -155 -109 -340
-233 -348 -233 -5 0 9 44 29 98 21 53 50 131 65 172 88 245 89 249 131 349 20
48 23 39 -46 140 -19 28 -40 51 -47 51 -6 0 -24 -11 -40 -23z"/>
<path d="M13401 5004 c-62 -91 -62 -108 6 -152 27 -16 71 -47 98 -66 28 -20
61 -44 75 -53 34 -24 104 -77 110 -84 3 -4 61 -46 130 -94 69 -48 142 -101
163 -117 46 -37 51 -34 118 71 51 79 51 88 3 114 -33 17 -191 127 -304 210
-135 100 -175 129 -215 157 -20 14 -56 40 -80 58 -24 17 -46 32 -48 32 -2 0
-27 -34 -56 -76z"/>
<path d="M13196 4697 c-72 -102 -73 -107 -42 -174 15 -32 31 -67 36 -78 4 -11
17 -41 29 -66 30 -68 36 -100 21 -109 -14 -9 -76 -4 -130 10 -19 5 -69 16
-111 26 l-76 16 -50 -53 c-85 -91 -107 -119 -96 -130 9 -9 71 -26 173 -48 124
-25 179 -34 251 -40 42 -3 83 -12 91 -19 9 -7 19 -34 23 -60 3 -26 19 -85 35
-132 15 -47 31 -101 35 -120 9 -44 53 -140 64 -140 9 0 122 142 135 169 5 12
3 31 -7 52 -8 19 -22 61 -32 94 -9 33 -25 84 -35 113 -21 59 -14 70 35 58 14
-3 37 -9 53 -12 15 -3 36 -9 47 -14 18 -7 60 -19 120 -34 27 -7 35 0 78 64 20
30 48 68 62 84 32 37 31 42 -2 49 -39 8 -159 35 -213 48 -78 18 -134 30 -168
36 -32 5 -82 55 -82 82 0 6 -4 19 -9 29 -11 21 -18 39 -66 165 -36 94 -89 187
-112 194 -6 2 -31 -25 -57 -60z"/>
<path d="M3159 4160 c-18 -10 -674 -229 -744 -248 -22 -6 -52 -14 -67 -17 -47
-9 -38 -28 77 -157 l49 -57 62 35 c33 19 67 34 75 34 8 -1 30 -21 49 -45 19
-24 68 -82 108 -129 l72 -85 -45 -77 -46 -77 49 -51 c27 -28 59 -66 71 -84 20
-28 25 -31 39 -20 19 16 118 220 201 418 61 142 78 179 160 349 22 46 38 89
34 95 -4 6 -27 37 -51 69 -43 56 -61 66 -93 47z m-129 -258 c0 -4 -7 -17 -15
-29 -9 -12 -30 -64 -48 -115 -19 -50 -37 -93 -43 -95 -12 -3 -115 157 -108
168 3 5 15 9 27 9 12 1 54 16 92 35 72 34 95 41 95 27z"/>
<path d="M12487 3837 c-114 -111 -208 -207 -207 -214 0 -6 4 -13 9 -15 13 -5
269 -246 451 -425 91 -90 173 -163 182 -163 14 0 357 346 409 413 21 27 21 29
3 48 -26 29 -109 89 -123 89 -11 0 -115 -105 -233 -234 l-44 -49 -52 59 c-29
32 -52 62 -52 68 0 5 50 60 110 121 61 62 110 118 110 125 0 11 -105 120 -116
120 -3 0 -55 -52 -116 -115 -62 -63 -117 -115 -124 -115 -15 0 -114 90 -114
103 0 5 61 72 137 148 134 136 136 139 118 159 -24 27 -108 80 -126 80 -8 -1
-108 -92 -222 -203z"/>
<path d="M3438 3602 c-235 -252 -438 -490 -438 -514 0 -8 43 -54 97 -103 206
-192 273 -233 396 -242 205 -15 366 79 456 267 34 72 36 79 35 180 -1 173 -26
214 -256 425 -81 74 -149 135 -150 135 -2 -1 -65 -67 -140 -148z m239 -202
c94 -91 124 -188 84 -276 -57 -126 -187 -195 -308 -165 -49 13 -183 95 -183
112 0 6 18 29 39 52 22 23 54 60 71 82 17 22 60 69 94 105 34 36 75 82 90 103
16 20 36 37 45 37 9 0 40 -22 68 -50z"/>
<path d="M12066 3416 c-42 -41 -76 -79 -76 -84 0 -6 4 -21 9 -34 10 -26 42
-132 67 -223 9 -33 20 -69 24 -80 16 -41 40 -128 40 -146 0 -10 5 -21 10 -24
13 -8 13 -45 -1 -45 -6 0 -42 20 -80 45 -38 25 -72 45 -74 45 -6 0 -223 137
-275 174 -80 57 -85 56 -169 -19 -28 -24 -59 -46 -70 -50 -30 -9 -26 -29 18
-89 21 -29 74 -104 117 -167 189 -278 326 -469 335 -469 4 0 35 21 67 48 33
26 68 52 78 58 15 9 2 30 -110 179 -71 93 -130 174 -133 182 -7 19 22 7 79
-34 26 -18 50 -33 53 -33 3 0 11 -5 18 -11 19 -17 270 -179 277 -179 4 0 31
17 61 38 74 51 74 58 14 262 -24 83 -34 117 -43 153 -5 18 -14 42 -20 54 -14
25 -16 53 -4 53 4 -1 27 -26 52 -57 37 -47 186 -218 236 -273 12 -12 23 -6 79
50 36 35 65 69 65 74 0 5 -21 34 -47 65 -48 57 -61 71 -149 172 -55 63 -79 93
-179 224 -128 167 -168 215 -181 215 -7 0 -46 -33 -88 -74z"/>
<path d="M4390 3050 c-14 -11 -29 -20 -33 -20 -5 0 -47 -27 -94 -61 -46 -33
-173 -121 -281 -196 -221 -153 -317 -229 -317 -252 0 -22 141 -121 174 -121
10 0 35 20 55 45 l37 44 63 -43 c35 -24 68 -45 72 -47 5 -2 49 -30 97 -62 l88
-58 -7 -37 c-4 -20 -11 -47 -15 -60 -19 -49 -12 -59 83 -118 102 -63 128 -73
128 -53 1 25 37 231 85 489 9 47 20 108 25 135 5 28 18 100 29 160 32 169 34
161 -59 223 -44 28 -86 52 -93 52 -6 0 -23 -9 -37 -20z m-20 -267 c0 -5 -11
-53 -25 -108 -14 -55 -25 -114 -25 -132 0 -17 -4 -34 -9 -37 -10 -6 -183 95
-188 110 -2 5 9 17 25 26 15 9 65 46 112 82 78 61 110 78 110 59z"/>
<path d="M5497 2394 c-13 -13 -7 -24 14 -24 11 0 19 5 17 12 -5 14 -22 21 -31
12z"/>
<path d="M10490 2377 c27 -15 36 -14 25 2 -3 6 -16 11 -28 11 -21 0 -21 -1 3
-13z"/>
<path d="M10415 2357 c-18 -14 -14 -37 6 -37 6 0 7 5 4 10 -4 6 -1 17 5 25 15
19 9 19 -15 2z"/>
<path d="M5596 2352 c-2 -4 -1 -14 5 -22 7 -12 9 -10 9 8 0 23 -5 28 -14 14z"/>
<path d="M10540 2307 c0 -17 61 -140 66 -134 3 3 -2 23 -12 44 -23 49 -54 100
-54 90z"/>
<path d="M10434 2287 c3 -10 6 -23 6 -28 0 -5 5 -9 10 -9 14 0 12 13 -6 36
-14 17 -15 17 -10 1z"/>
<path d="M10460 2220 c0 -5 5 -10 11 -10 5 0 7 5 4 10 -3 6 -8 10 -11 10 -2 0
-4 -4 -4 -10z"/>
<path d="M6786 2092 c-3 -5 -10 -49 -16 -98 -6 -49 -19 -138 -30 -199 -36
-212 -43 -298 -31 -371 40 -230 230 -367 461 -335 178 24 306 151 345 339 17
80 48 573 37 583 -4 4 -53 10 -109 14 l-103 7 0 -68 c0 -66 -10 -192 -31 -404
-17 -174 -66 -248 -169 -258 -86 -8 -154 28 -192 101 -18 36 -20 53 -15 141 2
56 12 146 21 201 24 145 43 314 36 324 -3 4 -43 13 -90 19 -101 14 -107 14
-114 4z"/>
<path d="M8969 2085 c-3 -2 -49 -13 -103 -24 -54 -10 -102 -23 -106 -28 -12
-12 -56 -203 -70 -303 -7 -47 -26 -150 -42 -230 -35 -175 -78 -409 -78 -426 0
-13 26 -12 167 2 44 5 54 9 57 27 2 12 9 51 15 86 6 36 14 68 18 72 6 6 230
42 327 52 14 1 28 -16 55 -70 20 -39 39 -74 43 -78 3 -4 53 3 110 15 132 27
133 27 120 43 -13 16 -115 196 -182 322 -30 55 -71 129 -93 165 -21 36 -66
117 -100 180 -87 165 -121 213 -138 195z m-31 -297 c3 -13 34 -78 69 -146 35
-67 61 -126 58 -131 -3 -5 -29 -12 -58 -15 -156 -19 -147 -19 -147 1 -1 39 54
313 63 313 5 0 11 -10 15 -22z"/>
<path d="M10650 2061 c0 -5 5 -13 10 -16 6 -3 10 -2 10 4 0 5 -4 13 -10 16 -5
3 -10 2 -10 -4z"/>
<path d="M10530 2055 c0 -3 4 -13 9 -23 5 -9 13 -26 16 -37 4 -11 9 -15 12 -8
2 6 -3 25 -12 42 -14 28 -25 39 -25 26z"/>
<path d="M7930 2011 c-117 -38 -166 -76 -213 -165 -31 -59 -31 -193 0 -252 42
-80 100 -110 311 -165 168 -43 199 -63 188 -122 -10 -54 -46 -80 -116 -85 -96
-7 -167 30 -215 112 -9 16 -19 13 -104 -31 -51 -26 -96 -54 -98 -61 -7 -17 63
-106 112 -141 72 -52 134 -66 285 -66 121 0 141 2 188 24 102 46 182 167 182
276 0 165 -80 247 -290 294 -188 42 -218 52 -235 78 -39 59 10 108 105 105 71
-2 113 -18 163 -62 l37 -32 68 46 c37 25 81 57 97 70 l30 24 -50 49 c-49 47
-97 75 -183 107 -58 22 -191 20 -262 -3z"/>
<path d="M10671 2025 c-1 -18 25 -85 37 -97 7 -7 12 -8 11 -2 0 13 -48 111
-48 99z"/>
<path d="M5455 1960 c-3 -5 -1 -10 4 -10 6 0 11 5 11 10 0 6 -2 10 -4 10 -3 0
-8 -4 -11 -10z"/>
<path d="M10605 1870 c3 -5 8 -10 11 -10 2 0 4 5 4 10 0 6 -5 10 -11 10 -5 0
-7 -4 -4 -10z"/>
<path d="M10740 1849 c0 -8 7 -24 16 -35 14 -18 15 -18 8 6 -8 31 -24 50 -24
29z"/>
<path d="M10620 1836 c0 -8 5 -18 10 -21 6 -3 10 1 10 9 0 8 -4 18 -10 21 -5
3 -10 -1 -10 -9z"/>
<path d="M10640 1790 c0 -5 5 -10 11 -10 5 0 7 5 4 10 -3 6 -8 10 -11 10 -2 0
-4 -4 -4 -10z"/>
<path d="M10650 1750 c0 -5 5 -10 10 -10 6 0 10 5 10 10 0 6 -4 10 -10 10 -5
0 -10 -4 -10 -10z"/>
<path d="M10790 1720 c0 -5 5 -10 10 -10 6 0 10 5 10 10 0 6 -4 10 -10 10 -5
0 -10 -4 -10 -10z"/>
<path d="M10820 1640 c0 -13 5 -20 13 -17 6 2 12 10 12 17 0 7 -6 15 -12 18
-8 2 -13 -5 -13 -18z"/>
<path d="M5207 1643 c-13 -12 -7 -43 8 -43 9 0 15 9 15 25 0 24 -10 32 -23 18z"/>
<path d="M10710 1606 c0 -16 6 -26 15 -26 8 0 15 5 15 11 0 6 -7 17 -15 25
-13 14 -15 13 -15 -10z"/>
<path d="M10765 1619 c-11 -17 0 -20 21 -4 17 13 17 14 2 15 -9 0 -20 -5 -23
-11z"/>
<path d="M5295 1580 c-8 -12 20 -24 35 -15 6 3 8 11 5 16 -8 12 -32 12 -40 -1z"/>
</g>
</svg>
